<svg width="307" height="154" viewBox="0 0 307 154" fill="none" xmlns="http://www.w3.org/2000/svg">
    <text fill="#1FA5CF" xml:space="preserve" style="white-space: pre" font-family="Montserrat" font-size="15.0857"
          font-weight="500" letter-spacing="0em" x="153.5" y="95"
            text-anchor="middle"
    >{{full_name}}</text>
    <text fill="#1FA5CF" xml:space="preserve" style="white-space: pre" font-family="Montserrat" font-size="15.0857"
          font-weight="500" letter-spacing="0em" x="153.5" y="110"
            text-anchor="middle"
    >{{middle_name}}</text>
    <text fill="#1FA5CF" xml:space="preserve" style="white-space: pre" font-family="Montserrat" font-size="15.0857"
          font-weight="500" letter-spacing="0em" x="153.5" y="130"
            text-anchor="middle"
    >{{inn}}</text>
    <text fill="#1FA5CF" xml:space="preserve" style="white-space: pre" font-family="Montserrat" font-size="15.0857"
          font-weight="700" letter-spacing="0em" text-anchor="middle" x="153.5" y="70"
    >{{date}}</text>
    <path d="M38.8888 41.6057H31.5346L30.1316 45H26.3752L33.4354 29.16H37.0559L44.1387 45H40.2918L38.8888 41.6057ZM37.7348 38.8224L35.223 32.7579L32.7112 38.8224H37.7348Z"
          fill="#1FA5CF"/>
    <path d="M51.3061 45.181C50.0087 45.181 48.8396 44.917 47.7987 44.389C46.7728 43.8459 45.9658 43.0992 45.3774 42.1488C44.8042 41.1984 44.5175 40.1198 44.5175 38.9129C44.5175 37.7061 44.8042 36.6274 45.3774 35.677C45.9658 34.7266 46.7728 33.9874 47.7987 33.4594C48.8396 32.9163 50.0087 32.6448 51.3061 32.6448C52.5884 32.6448 53.7047 32.9163 54.6551 33.4594C55.6206 33.9874 56.3221 34.7493 56.7596 35.7449L54.0215 37.2158C53.3879 36.0994 52.4752 35.5413 51.2835 35.5413C50.3632 35.5413 49.6014 35.843 48.998 36.4464C48.3946 37.0498 48.0928 37.872 48.0928 38.9129C48.0928 39.9538 48.3946 40.776 48.998 41.3794C49.6014 41.9829 50.3632 42.2846 51.2835 42.2846C52.4903 42.2846 53.403 41.7264 54.0215 40.6101L56.7596 42.1035C56.3221 43.069 55.6206 43.8233 54.6551 44.3664C53.7047 44.9095 52.5884 45.181 51.3061 45.181Z"
          fill="#1FA5CF"/>
    <path d="M64.5208 45.181C63.2235 45.181 62.0543 44.917 61.0134 44.389C59.9876 43.8459 59.1805 43.0992 58.5921 42.1488C58.0189 41.1984 57.7323 40.1198 57.7323 38.9129C57.7323 37.7061 58.0189 36.6274 58.5921 35.677C59.1805 34.7266 59.9876 33.9874 61.0134 33.4594C62.0543 32.9163 63.2235 32.6448 64.5208 32.6448C65.8031 32.6448 66.9195 32.9163 67.8699 33.4594C68.8353 33.9874 69.5368 34.7493 69.9743 35.7449L67.2363 37.2158C66.6027 36.0994 65.69 35.5413 64.4982 35.5413C63.578 35.5413 62.8161 35.843 62.2127 36.4464C61.6093 37.0498 61.3076 37.872 61.3076 38.9129C61.3076 39.9538 61.6093 40.776 62.2127 41.3794C62.8161 41.9829 63.578 42.2846 64.4982 42.2846C65.7051 42.2846 66.6177 41.7264 67.2363 40.6101L69.9743 42.1035C69.5368 43.069 68.8353 43.8233 67.8699 44.3664C66.9195 44.9095 65.8031 45.181 64.5208 45.181Z"
          fill="#1FA5CF"/>
    <path d="M77.6451 45.181C76.3628 45.181 75.2087 44.917 74.1829 44.389C73.1721 43.8459 72.3801 43.0992 71.8069 42.1488C71.2336 41.1984 70.947 40.1198 70.947 38.9129C70.947 37.7061 71.2336 36.6274 71.8069 35.677C72.3801 34.7266 73.1721 33.9874 74.1829 33.4594C75.2087 32.9163 76.3628 32.6448 77.6451 32.6448C78.9273 32.6448 80.0739 32.9163 81.0846 33.4594C82.0953 33.9874 82.8873 34.7266 83.4606 35.677C84.0339 36.6274 84.3205 37.7061 84.3205 38.9129C84.3205 40.1198 84.0339 41.1984 83.4606 42.1488C82.8873 43.0992 82.0953 43.8459 81.0846 44.389C80.0739 44.917 78.9273 45.181 77.6451 45.181ZM77.6451 42.2846C78.5502 42.2846 79.2894 41.9829 79.8626 41.3794C80.451 40.7609 80.7452 39.9387 80.7452 38.9129C80.7452 37.8871 80.451 37.0725 79.8626 36.469C79.2894 35.8505 78.5502 35.5413 77.6451 35.5413C76.7399 35.5413 75.9932 35.8505 75.4048 36.469C74.8165 37.0725 74.5223 37.8871 74.5223 38.9129C74.5223 39.9387 74.8165 40.7609 75.4048 41.3794C75.9932 41.9829 76.7399 42.2846 77.6451 42.2846Z"
          fill="#1FA5CF"/>
    <path d="M90.0517 34.4325C90.4741 33.8441 91.0398 33.3991 91.7488 33.0974C92.473 32.7957 93.3027 32.6448 94.238 32.6448V35.9033C93.8458 35.8731 93.5818 35.8581 93.446 35.8581C92.4352 35.8581 91.6432 36.1447 91.07 36.7179C90.4967 37.2761 90.2101 38.1209 90.2101 39.2523V45H86.68V32.8258H90.0517V34.4325Z"
          fill="#1FA5CF"/>
    <path d="M108.627 28.2096V45H105.255V43.597C104.38 44.653 103.113 45.181 101.454 45.181C100.307 45.181 99.2662 44.9246 98.3309 44.4117C97.4107 43.8987 96.6866 43.1671 96.1586 42.2167C95.6306 41.2663 95.3666 40.165 95.3666 38.9129C95.3666 37.6608 95.6306 36.5595 96.1586 35.6091C96.6866 34.6587 97.4107 33.9271 98.3309 33.4142C99.2662 32.9013 100.307 32.6448 101.454 32.6448C103.008 32.6448 104.222 33.1351 105.097 34.1157V28.2096H108.627ZM102.065 42.2846C102.955 42.2846 103.694 41.9829 104.282 41.3794C104.871 40.7609 105.165 39.9387 105.165 38.9129C105.165 37.8871 104.871 37.0725 104.282 36.469C103.694 35.8505 102.955 35.5413 102.065 35.5413C101.16 35.5413 100.413 35.8505 99.8244 36.469C99.2361 37.0725 98.9419 37.8871 98.9419 38.9129C98.9419 39.9387 99.2361 40.7609 99.8244 41.3794C100.413 41.9829 101.16 42.2846 102.065 42.2846Z"
          fill="#1FA5CF"/>
    <path d="M111.894 32.8258H115.424V45H111.894V32.8258ZM113.659 31.1287C113.01 31.1287 112.482 30.9401 112.075 30.563C111.668 30.1858 111.464 29.7182 111.464 29.16C111.464 28.6018 111.668 28.1342 112.075 27.757C112.482 27.3799 113.01 27.1913 113.659 27.1913C114.308 27.1913 114.836 27.3723 115.243 27.7344C115.65 28.0965 115.854 28.549 115.854 29.0921C115.854 29.6805 115.65 30.1707 115.243 30.563C114.836 30.9401 114.308 31.1287 113.659 31.1287Z"
          fill="#1FA5CF"/>
    <path d="M126.1 32.6448C127.608 32.6448 128.823 33.0974 129.743 34.0025C130.678 34.9077 131.146 36.2503 131.146 38.0304V45H127.616V38.5735C127.616 37.608 127.405 36.8914 126.982 36.4238C126.56 35.941 125.949 35.6997 125.149 35.6997C124.259 35.6997 123.55 35.9787 123.022 36.5369C122.494 37.08 122.23 37.8946 122.23 38.9808V45H118.7V32.8258H122.072V34.2514C122.54 33.7385 123.12 33.3463 123.814 33.0747C124.508 32.7881 125.27 32.6448 126.1 32.6448Z"
          fill="#1FA5CF"/>
    <path d="M147.037 32.8258V42.9634C147.037 45.1961 146.457 46.8555 145.295 47.9417C144.133 49.0279 142.436 49.571 140.204 49.571C139.027 49.571 137.91 49.4277 136.854 49.141C135.798 48.8544 134.924 48.4395 134.23 47.8965L135.633 45.3621C136.145 45.7845 136.794 46.1163 137.579 46.3577C138.363 46.6142 139.148 46.7424 139.932 46.7424C141.154 46.7424 142.052 46.4633 142.625 45.9051C143.213 45.3621 143.507 44.5323 143.507 43.416V42.8955C142.587 43.9063 141.305 44.4117 139.66 44.4117C138.544 44.4117 137.518 44.1703 136.583 43.6875C135.663 43.1897 134.931 42.4958 134.388 41.6057C133.845 40.7157 133.573 39.6898 133.573 38.5282C133.573 37.3666 133.845 36.3408 134.388 35.4507C134.931 34.5607 135.663 33.8743 136.583 33.3915C137.518 32.8937 138.544 32.6448 139.66 32.6448C141.425 32.6448 142.768 33.2256 143.688 34.3872V32.8258H147.037ZM140.362 41.5152C141.297 41.5152 142.059 41.2437 142.647 40.7006C143.251 40.1424 143.553 39.4183 143.553 38.5282C143.553 37.6382 143.251 36.9216 142.647 36.3785C142.059 35.8203 141.297 35.5413 140.362 35.5413C139.427 35.5413 138.657 35.8203 138.054 36.3785C137.45 36.9216 137.149 37.6382 137.149 38.5282C137.149 39.4183 137.45 40.1424 138.054 40.7006C138.657 41.2437 139.427 41.5152 140.362 41.5152Z"
          fill="#1FA5CF"/>
    <path d="M164.583 44.4117C164.237 44.6681 163.807 44.8642 163.294 45C162.796 45.1207 162.268 45.181 161.71 45.181C160.261 45.181 159.138 44.8114 158.338 44.0722C157.554 43.333 157.161 42.2469 157.161 40.8137V35.8128H155.283V33.0974H157.161V30.133H160.691V33.0974H163.724V35.8128H160.691V40.7685C160.691 41.2814 160.82 41.6811 161.076 41.9678C161.348 42.2393 161.725 42.3751 162.208 42.3751C162.766 42.3751 163.241 42.2242 163.633 41.9225L164.583 44.4117Z"
          fill="#1FA5CF"/>
    <path d="M171.982 45.181C170.7 45.181 169.546 44.917 168.52 44.389C167.509 43.8459 166.717 43.0992 166.144 42.1488C165.571 41.1984 165.284 40.1198 165.284 38.9129C165.284 37.7061 165.571 36.6274 166.144 35.677C166.717 34.7266 167.509 33.9874 168.52 33.4594C169.546 32.9163 170.7 32.6448 171.982 32.6448C173.265 32.6448 174.411 32.9163 175.422 33.4594C176.433 33.9874 177.225 34.7266 177.798 35.677C178.371 36.6274 178.658 37.7061 178.658 38.9129C178.658 40.1198 178.371 41.1984 177.798 42.1488C177.225 43.0992 176.433 43.8459 175.422 44.389C174.411 44.917 173.265 45.181 171.982 45.181ZM171.982 42.2846C172.887 42.2846 173.627 41.9829 174.2 41.3794C174.788 40.7609 175.082 39.9387 175.082 38.9129C175.082 37.8871 174.788 37.0725 174.2 36.469C173.627 35.8505 172.887 35.5413 171.982 35.5413C171.077 35.5413 170.33 35.8505 169.742 36.469C169.154 37.0725 168.86 37.8871 168.86 38.9129C168.86 39.9387 169.154 40.7609 169.742 41.3794C170.33 41.9829 171.077 42.2846 171.982 42.2846Z"
          fill="#1FA5CF"/>
    <path d="M195.346 45.2715C193.701 45.2715 192.216 44.917 190.888 44.208C189.576 43.499 188.542 42.5259 187.788 41.2889C187.049 40.0368 186.679 38.6338 186.679 37.08C186.679 35.5262 187.049 34.1307 187.788 32.8937C188.542 31.6416 189.576 30.661 190.888 29.952C192.216 29.243 193.701 28.8885 195.346 28.8885C196.99 28.8885 198.469 29.243 199.781 29.952C201.093 30.661 202.127 31.6416 202.881 32.8937C203.635 34.1307 204.013 35.5262 204.013 37.08C204.013 38.6338 203.635 40.0368 202.881 41.2889C202.127 42.5259 201.093 43.499 199.781 44.208C198.469 44.917 196.99 45.2715 195.346 45.2715ZM195.346 42.1488C196.281 42.1488 197.126 41.9376 197.88 41.5152C198.634 41.0777 199.223 40.4743 199.645 39.7049C200.083 38.9355 200.301 38.0606 200.301 37.08C200.301 36.0994 200.083 35.2245 199.645 34.4551C199.223 33.6857 198.634 33.0898 197.88 32.6674C197.126 32.2299 196.281 32.0112 195.346 32.0112C194.41 32.0112 193.566 32.2299 192.811 32.6674C192.057 33.0898 191.461 33.6857 191.024 34.4551C190.601 35.2245 190.39 36.0994 190.39 37.08C190.39 38.0606 190.601 38.9355 191.024 39.7049C191.461 40.4743 192.057 41.0777 192.811 41.5152C193.566 41.9376 194.41 42.1488 195.346 42.1488Z"
          fill="#1FA5CF"/>
    <path d="M209.89 34.4325C210.313 33.8441 210.878 33.3991 211.587 33.0974C212.312 32.7957 213.141 32.6448 214.077 32.6448V35.9033C213.684 35.8731 213.42 35.8581 213.285 35.8581C212.274 35.8581 211.482 36.1447 210.909 36.7179C210.335 37.2761 210.049 38.1209 210.049 39.2523V45H206.519V32.8258H209.89V34.4325Z"
          fill="#1FA5CF"/>
    <path d="M216.176 32.8258H219.706V45H216.176V32.8258ZM217.941 31.1287C217.292 31.1287 216.764 30.9401 216.357 30.563C215.949 30.1858 215.746 29.7182 215.746 29.16C215.746 28.6018 215.949 28.1342 216.357 27.757C216.764 27.3799 217.292 27.1913 217.941 27.1913C218.589 27.1913 219.117 27.3723 219.525 27.7344C219.932 28.0965 220.136 28.549 220.136 29.0921C220.136 29.6805 219.932 30.1707 219.525 30.563C219.117 30.9401 218.589 31.1287 217.941 31.1287Z"
          fill="#1FA5CF"/>
    <path d="M235.541 32.8258V42.9634C235.541 45.1961 234.96 46.8555 233.798 47.9417C232.637 49.0279 230.94 49.571 228.707 49.571C227.53 49.571 226.414 49.4277 225.358 49.141C224.302 48.8544 223.427 48.4395 222.733 47.8965L224.136 45.3621C224.649 45.7845 225.297 46.1163 226.082 46.3577C226.866 46.6142 227.651 46.7424 228.435 46.7424C229.657 46.7424 230.555 46.4633 231.128 45.9051C231.716 45.3621 232.011 44.5323 232.011 43.416V42.8955C231.09 43.9063 229.808 44.4117 228.164 44.4117C227.047 44.4117 226.022 44.1703 225.086 43.6875C224.166 43.1897 223.434 42.4958 222.891 41.6057C222.348 40.7157 222.077 39.6898 222.077 38.5282C222.077 37.3666 222.348 36.3408 222.891 35.4507C223.434 34.5607 224.166 33.8743 225.086 33.3915C226.022 32.8937 227.047 32.6448 228.164 32.6448C229.929 32.6448 231.271 33.2256 232.192 34.3872V32.8258H235.541ZM228.865 41.5152C229.801 41.5152 230.562 41.2437 231.151 40.7006C231.754 40.1424 232.056 39.4183 232.056 38.5282C232.056 37.6382 231.754 36.9216 231.151 36.3785C230.562 35.8203 229.801 35.5413 228.865 35.5413C227.93 35.5413 227.161 35.8203 226.557 36.3785C225.954 36.9216 225.652 37.6382 225.652 38.5282C225.652 39.4183 225.954 40.1424 226.557 40.7006C227.161 41.2437 227.93 41.5152 228.865 41.5152Z"
          fill="#1FA5CF"/>
    <path d="M238.826 32.8258H242.356V45H238.826V32.8258ZM240.591 31.1287C239.943 31.1287 239.415 30.9401 239.007 30.563C238.6 30.1858 238.396 29.7182 238.396 29.16C238.396 28.6018 238.6 28.1342 239.007 27.757C239.415 27.3799 239.943 27.1913 240.591 27.1913C241.24 27.1913 241.768 27.3723 242.175 27.7344C242.583 28.0965 242.786 28.549 242.786 29.0921C242.786 29.6805 242.583 30.1707 242.175 30.563C241.768 30.9401 241.24 31.1287 240.591 31.1287Z"
          fill="#1FA5CF"/>
    <path d="M253.032 32.6448C254.541 32.6448 255.755 33.0974 256.675 34.0025C257.611 34.9077 258.078 36.2503 258.078 38.0304V45H254.548V38.5735C254.548 37.608 254.337 36.8914 253.915 36.4238C253.492 35.941 252.881 35.6997 252.082 35.6997C251.192 35.6997 250.483 35.9787 249.955 36.5369C249.427 37.08 249.163 37.8946 249.163 38.9808V45H245.633V32.8258H249.004V34.2514C249.472 33.7385 250.053 33.3463 250.747 33.0747C251.441 32.7881 252.202 32.6448 253.032 32.6448Z"
          fill="#1FA5CF"/>
    <path d="M266.188 32.6448C268.074 32.6448 269.522 33.0974 270.533 34.0025C271.544 34.8926 272.049 36.2427 272.049 38.053V45H268.745V43.4839C268.082 44.6153 266.845 45.181 265.034 45.181C264.099 45.181 263.284 45.0226 262.59 44.7058C261.912 44.389 261.391 43.9515 261.029 43.3934C260.667 42.8352 260.486 42.2016 260.486 41.4926C260.486 40.3611 260.908 39.4711 261.753 38.8224C262.613 38.1737 263.933 37.8494 265.713 37.8494H268.519C268.519 37.08 268.285 36.4917 267.818 36.0843C267.35 35.6619 266.649 35.4507 265.713 35.4507C265.065 35.4507 264.423 35.5563 263.79 35.7675C263.171 35.9637 262.643 36.2352 262.206 36.5822L260.939 34.1157C261.602 33.648 262.394 33.2859 263.315 33.0295C264.25 32.773 265.208 32.6448 266.188 32.6448ZM265.917 42.805C266.52 42.805 267.056 42.6693 267.524 42.3977C267.991 42.1111 268.323 41.6962 268.519 41.1531V39.9086H266.098C264.65 39.9086 263.926 40.3838 263.926 41.3342C263.926 41.7867 264.099 42.1488 264.446 42.4203C264.808 42.6768 265.298 42.805 265.917 42.805Z"
          fill="#1FA5CF"/>
    <path d="M275.244 28.2096H278.774V45H275.244V28.2096Z" fill="#1FA5CF"/>
    <rect x="6.82857" y="6.82857" width="293.343" height="140.343" rx="16.0286" stroke="#1FA5CF"
          stroke-width="5.65714"/>
    <rect x="0.942857" y="0.942857" width="305.114" height="152.114" rx="21.6857" stroke="#1FA5CF"
          stroke-width="1.88571"/>
</svg>
