<svg width="719" height="1199" viewBox="0 0 719 1199" fill="none" xmlns="http://www.w3.org/2000/svg">
<path d="M359 0.994995C331.117 32.6824 314.124 74.1335 314.124 119.658C315.769 219.602 328.006 319.426 329.083 419.16C331.297 512.306 303.414 599.76 269.487 685.119C258.179 708.689 245.972 731.751 233.736 754.873L197.835 747.625C165.435 741.155 144.373 709.618 150.865 677.182C156.519 648.819 181.47 628.962 209.294 628.962L222.397 630.37L193.168 385.975C183.624 277.256 127.559 181.715 45.0772 119.718C30.8964 109.055 15.8479 99.2917 0.201172 90.696V958.355H200.288C215.247 1039.52 259.944 1110.5 322.77 1159.02C337.699 1169.32 350.234 1182.92 359.239 1198.8C368.215 1182.92 380.75 1169.32 395.709 1159.02C458.535 1110.38 503.232 1039.55 518.19 958.355H718.277V90.696C702.631 99.2917 687.582 109.055 673.401 119.718C590.83 181.805 534.884 277.256 525.311 385.975L496.081 630.37L509.185 628.962C537.008 629.082 561.959 648.789 567.614 677.182C574.076 709.618 553.014 741.126 520.643 747.625L484.743 754.873C472.506 731.781 460.27 708.719 448.991 685.119C415.035 599.82 387.152 512.366 389.366 419.16C390.443 319.127 402.679 219.392 404.325 119.658C404.325 74.1335 387.332 32.8022 359.449 0.994995H359ZM59.8265 215.738C98.5395 261.233 124.538 317.869 132.226 380.255L156.16 581.82C125.495 597.095 102.309 625.128 93.5134 659.062H59.617V215.798L59.8265 215.738ZM658.174 215.738V659.002H624.277C615.541 625.098 592.296 597.065 561.63 581.76L585.564 380.195C593.313 317.869 619.311 261.173 657.964 215.648L658.174 215.738ZM359 620.965C375.066 673.588 397.175 723.695 424.669 770.057C398.521 777.994 375.784 793.449 359 814.264C342.216 793.449 319.479 778.024 293.331 770.028C320.825 723.575 342.934 673.588 359 620.965V620.965ZM59.8265 719.022H93.7228C104.403 760.384 136.654 793.029 177.491 804.44L206.242 811C198.553 838.913 194.335 868.204 194.335 898.754H59.7068V719.052L59.8265 719.022ZM624.367 719.022H658.263V898.724H523.635C523.635 868.354 519.417 838.913 511.728 810.97L540.479 804.41C581.465 792.999 613.686 760.324 624.247 718.992L624.367 719.022ZM264.76 824.747C301.05 829.868 329.023 860.986 329.023 898.694H254.229C254.229 873.026 258.029 848.258 264.76 824.747ZM453.15 824.747C459.881 848.258 463.681 872.967 463.681 898.694H388.887C388.887 860.927 416.86 829.868 453.15 824.747ZM261.08 958.624H329.083V1084.71C296.174 1050.12 272.24 1006.84 261.08 958.624ZM388.917 958.624H456.919C445.91 1006.84 421.916 1050.18 388.917 1084.71V958.624Z" fill="#F4F5F9"/>
</svg>
