<svg width="439" height="79" viewBox="0 0 439 79" fill="none" xmlns="http://www.w3.org/2000/svg">
<g clip-path="url(#clip0)">
<path d="M66.24 43.54L44.86 55.87V32.75H61.33L53.67 19.75H38.67L47.86 10.62L37.21 0L26.21 11.05L35 19.79H21.06L13.53 32.79H29.23V55.87L7.79 43.48L0 57.08L37 78.47L74.09 57.08L66.24 43.54Z" fill="white"/>
</g>
<g clip-path="url(#clip1)">
<path d="M110.61 42.5199H110.42L102.89 28.1499H93V55.0899H100.4V37.7299H100.59L108.19 52.5999H112.85L120.06 37.8499H120.25V55.0899H127.65V28.1499H117.76L110.61 42.5199Z" fill="white"/>
<path d="M149.22 27C139.65 27 132.89 33.38 132.89 41.56C132.89 49.74 139.65 56.24 149.22 56.24C158.79 56.24 165.56 49.86 165.56 41.56C165.56 33.26 158.8 27 149.22 27ZM149.22 49.47C144.5 49.47 140.61 46.47 140.61 41.69C140.61 36.91 144.44 33.77 149.22 33.77C154 33.77 157.84 36.77 157.84 41.69C157.84 46.61 154 49.47 149.22 49.47Z" fill="white"/>
<path d="M185.85 28.1499H170.79V55.0899H178.2V47.0899H185.85C192.62 47.0899 196.9 43.0899 196.9 37.8299C196.9 32.2399 192.87 28.1499 185.85 28.1499ZM185.85 40.7299H178.2V34.6599H185.85C186.271 34.6231 186.696 34.6758 187.095 34.8144C187.494 34.9531 187.86 35.1746 188.168 35.4645C188.476 35.7544 188.719 36.1061 188.881 36.4965C189.043 36.8869 189.122 37.3072 189.11 37.7299C189.11 39.3899 188.09 40.7299 185.85 40.7299Z" fill="white"/>
<path d="M216.74 28.1499H201.68V55.0899H209.08V47.0899H216.74C223.51 47.0899 227.74 43.0899 227.74 37.8299C227.78 32.2399 223.76 28.1499 216.74 28.1499ZM216.74 40.7299H209.08V34.6599H216.74C217.161 34.6231 217.585 34.6758 217.985 34.8144C218.384 34.9531 218.75 35.1746 219.058 35.4645C219.366 35.7544 219.609 36.1061 219.771 36.4965C219.933 36.8869 220.011 37.3072 220 37.7299C220 39.3899 219 40.7299 216.74 40.7299Z" fill="white"/>
<path d="M240 28.1499H232.59V55.0899H240V28.1499Z" fill="white"/>
<path d="M265 38.5599C262.669 39.1892 260.265 39.5086 257.85 39.5099C254.91 39.5099 253 38.5099 253 34.6599V28.1499H245.6V36.1499C245.6 43.6199 250.19 46.1499 255.94 46.1499C259.043 46.1643 262.119 45.5804 265 44.4299V54.9999H272.4V28.1499H265V38.5599Z" fill="white"/>
<path d="M285.22 41.69C285.22 36.96 289.05 34.02 293.77 34.02C296.596 34.0842 299.387 34.6707 302 35.75V28.75C299.345 27.8747 296.566 27.4357 293.77 27.45C284.2 27.45 277.43 33.64 277.43 41.56C277.43 49.92 284.01 55.8 293.77 55.8C296.691 55.769 299.585 55.2275 302.32 54.2001V47.3701C299.57 48.346 296.686 48.8956 293.77 49C289.05 49 285.22 46.35 285.22 41.69Z" fill="white"/>
<path d="M421.6 41.6899C421.6 36.9999 425.43 33.9999 430.15 33.9999C432.977 34.0641 435.767 34.6506 438.38 35.7299V28.7299C435.724 27.8614 432.945 27.4291 430.15 27.4499C420.58 27.4499 413.81 33.6399 413.81 41.5599C413.81 49.9199 420.38 55.7999 430.15 55.7999C433.072 55.7689 435.965 55.2274 438.7 54.1999V47.3699C435.95 48.3459 433.066 48.8955 430.15 48.9999C425.49 48.9999 421.6 46.3499 421.6 41.6899Z" fill="white"/>
<path d="M315.53 44.5599H330.53V38.2999H315.53V34.6599H332V28.1499H308.51V55.0899H332.64V48.5799H315.53V44.5599Z" fill="white"/>
<path d="M353.44 28.1499H338.38V55.0899H345.78V47.0899H353.44C360.2 47.0899 364.44 43.0899 364.44 37.8299C364.42 32.2399 360.46 28.1499 353.44 28.1499ZM353.44 40.7299H345.78V34.6599H353.44C353.86 34.6246 354.283 34.6784 354.682 34.8177C355.08 34.957 355.444 35.1788 355.751 35.4685C356.058 35.7582 356.3 36.1094 356.462 36.4991C356.623 36.8887 356.701 37.3081 356.69 37.7299C356.691 38.1458 356.606 38.5575 356.44 38.9388C356.274 39.3201 356.03 39.6626 355.725 39.9447C355.419 40.2269 355.058 40.4423 354.665 40.5775C354.271 40.7127 353.854 40.7646 353.44 40.7299Z" fill="white"/>
<path d="M391.16 41.1101C392.139 40.57 392.954 39.7739 393.515 38.8069C394.077 37.8399 394.366 36.7384 394.35 35.6201C394.35 30.5101 390.2 28.0801 383.43 28.0801H369.07V55.0001H384.77C391.6 55.0001 395.77 52.5101 395.77 47.2701C395.81 44.4301 394.09 42.3201 391.16 41.1101ZM376.48 34.6601H383.43C385.6 34.6601 386.56 35.2401 386.56 36.6601C386.56 38.0801 385.56 38.6601 383.43 38.6601H376.48V34.6601ZM384.77 48.6601H376.48V44.2601H384.77C386.94 44.2601 388.03 45.0201 388.03 46.4301C388.03 47.8401 386.94 48.6401 384.77 48.6401V48.6601Z" fill="white"/>
<path d="M408.58 28.1499H401.18V55.0899H408.58V28.1499Z" fill="white"/>
</g>
<defs>
<clipPath id="clip0">
<rect width="74.09" height="78.47" fill="white"/>
</clipPath>
<clipPath id="clip1">
<rect width="345.7" height="29.24" fill="white" transform="translate(93 27)"/>
</clipPath>
</defs>
</svg>
