<svg width="471" height="472" viewBox="0 0 471 472" fill="none" xmlns="http://www.w3.org/2000/svg">
<path d="M469.5 235.602C469.5 364.837 364.735 469.602 235.5 469.602C106.265 469.602 1.5 364.837 1.5 235.602C1.5 106.367 106.265 1.60187 235.5 1.60187C364.735 1.60187 469.5 106.367 469.5 235.602Z" stroke="#3844AE" stroke-width="3"/>
<circle cx="235.5" cy="235.602" r="223" stroke="#3844AE" stroke-width="9"/>
<path fill-rule="evenodd" clip-rule="evenodd" d="M445.185 179.417L179.315 25.9169L25.8151 291.787L291.685 445.287L445.185 179.417ZM178.949 24.5509L24.4491 292.153L292.051 446.653L446.551 179.051L178.949 24.5509Z" fill="#3844AE"/>
<path fill-rule="evenodd" clip-rule="evenodd" d="M344.041 47.6035L47.5017 127.061L126.959 423.6L423.498 344.143L344.041 47.6035ZM46.277 126.354L126.252 424.825L424.723 344.85L344.748 46.3788L46.277 126.354Z" fill="#3844AE"/>
<path fill-rule="evenodd" clip-rule="evenodd" d="M445.185 291.787L291.685 25.9169L25.8151 179.417L179.315 445.287L445.185 291.787ZM292.051 24.5509L24.4491 179.051L178.949 446.653L446.551 292.153L292.051 24.5509Z" fill="#3844AE"/>
<path fill-rule="evenodd" clip-rule="evenodd" d="M423.498 127.061L126.959 47.6035L47.5017 344.143L344.041 423.6L423.498 127.061ZM126.252 46.3788L46.2769 344.85L344.748 424.825L424.723 126.354L126.252 46.3788Z" fill="#3844AE"/>
<path fill-rule="evenodd" clip-rule="evenodd" d="M452.582 235.602L235.5 18.5201L18.4182 235.602L235.5 452.684L452.582 235.602ZM235.5 17.1059L17.004 235.602L235.5 454.098L453.996 235.602L235.5 17.1059Z" fill="#3844AE"/>
<path fill-rule="evenodd" clip-rule="evenodd" d="M389 82.1019H82V389.102H389V82.1019ZM81 81.1019V390.102H390V81.1019H81Z" fill="#3844AE"/>
<path fill-rule="evenodd" clip-rule="evenodd" d="M114.72 97.5362C114.656 97.308 114.568 97.077 114.456 96.8431C114.372 96.6691 114.276 96.4935 114.167 96.3163C113.773 95.6846 113.211 94.8979 112.482 93.9564C112.471 93.9429 112.461 93.9295 112.45 93.9159L108.696 89.169L118.496 80.8107L128.271 92.2721L124.948 95.1066L117.498 86.3721L113.877 89.461L115.496 91.5757C116.263 92.547 116.912 93.4468 117.442 94.2751C117.445 94.2792 117.447 94.2833 117.45 94.2874C117.764 94.7797 118.037 95.2468 118.268 95.6886C118.328 95.8032 118.385 95.9169 118.439 96.0298C118.943 97.0872 119.183 98.0695 119.159 98.9768C119.147 99.4265 119.047 99.8531 118.858 100.257C118.817 100.344 118.772 100.43 118.723 100.515C118.661 100.622 118.593 100.727 118.518 100.831C118.313 101.115 118.059 101.387 117.755 101.646C117.732 101.666 117.709 101.686 117.685 101.705C117.383 101.954 117.02 102.201 116.597 102.445C116.411 102.553 116.214 102.659 116.005 102.766C115.941 102.798 115.877 102.83 115.812 102.862L113.656 99.9899C113.908 99.8245 114.083 99.6994 114.183 99.6146C114.191 99.6075 114.199 99.6003 114.208 99.5932C114.242 99.5632 114.275 99.5329 114.306 99.5022C114.499 99.315 114.64 99.1151 114.73 98.9026C114.745 98.8668 114.758 98.8307 114.77 98.7942C114.84 98.5868 114.862 98.3678 114.836 98.1372C114.816 97.9391 114.778 97.7388 114.72 97.5362ZM115.677 103.108L113.05 100.588L105.665 108.287L102.392 105.147L108.691 98.5795L106.145 96.1373L99.8455 102.704L96.7741 99.7582L103.907 92.3222L101.28 89.8024L91.0266 100.492L105.171 114.06L115.677 103.108ZM118.453 105.991L108.058 116.829C106.529 118.423 103.997 118.476 102.402 116.946L88.2576 103.378C87.4921 102.644 87.0495 101.636 87.0275 100.575C87.0054 99.5143 87.4056 98.4883 88.14 97.7227L98.3935 87.0334C99.1278 86.2679 100.136 85.8254 101.197 85.8033C102.258 85.7812 103.284 86.1814 104.049 86.9158L104.946 87.776C105.176 87.1556 105.563 86.5842 106.1 86.1256L115.9 77.7673C117.267 76.6015 119.192 76.5163 120.635 77.4292C120.84 76.6363 121.132 75.8622 121.512 75.1121C122.464 73.2177 123.863 71.6644 125.608 70.4528C127.308 69.273 129.198 68.5092 131.248 68.2649C132.16 68.1563 133.061 68.1604 133.945 68.2747C133.569 66.5919 134.319 64.7937 135.902 63.911L139.717 61.7838C140.644 61.2671 141.738 61.1397 142.758 61.4295C142.952 61.4846 143.14 61.554 143.322 61.6365C143.482 60.3779 144.23 59.2673 145.342 58.6474L149.401 56.3838C149.709 56.2123 150.033 56.0846 150.365 56.0003C150.509 55.9124 150.661 55.8327 150.82 55.7621L164.095 49.8503C164.636 49.6093 165.202 49.4982 165.758 49.5036C166.177 49.107 166.681 48.8019 167.239 48.6154L171.196 47.292C171.656 47.138 172.125 47.0724 172.583 47.0861C173.495 46.4421 174.52 45.9439 175.612 45.5785C177.545 44.9322 179.548 44.7686 181.553 45.1642C183.046 45.4394 184.421 46.0047 185.649 46.8362C186.346 45.4594 187.311 44.2549 188.516 43.2426C190.158 41.8531 192.088 40.9546 194.203 40.4894C196.313 40.0252 198.438 40.0296 200.505 40.6117C201.462 40.8735 202.366 41.2446 203.206 41.7239C203.42 39.9256 204.843 38.4424 206.721 38.2263L211.032 37.7302C212.086 37.6089 213.145 37.9112 213.976 38.5707C214.16 38.7162 214.329 38.8765 214.482 39.0493C214.592 38.8462 214.72 38.6517 214.865 38.4684C215.525 37.6374 216.488 37.1024 217.541 36.9811L221.881 36.4817C222.935 36.3605 223.994 36.6628 224.825 37.3223C224.842 37.3364 224.86 37.3506 224.877 37.3649C225.6 36.6134 226.614 36.1434 227.739 36.1371L232.079 36.113C233.434 36.1055 234.635 36.7725 235.364 37.7991C236.082 36.7644 237.276 36.0842 238.631 36.0767L242.999 36.0524C244.082 36.0464 245.067 36.4718 245.792 37.1675C246.576 36.5516 247.591 36.2265 248.661 36.3341L252.979 36.7681C254.035 36.8741 255.005 37.3952 255.677 38.2166C255.961 38.5645 256.182 38.9543 256.334 39.3682L257.053 38.6507C257.901 37.8034 259.085 37.3816 260.279 37.5015L264.263 37.9019C265.289 38.005 266.185 38.4871 266.826 39.1955C267.325 38.9163 267.875 38.749 268.438 38.7008C268.433 37.9832 268.513 37.2721 268.654 36.5873C268.87 35.5441 269.493 34.6299 270.385 34.0476C271.277 33.4653 272.365 33.263 273.407 33.4854L276.2 34.0817C276.946 34.2411 277.601 34.5997 278.117 35.0906C278.789 34.8537 279.532 34.7931 280.28 34.9527L283.128 35.5607C284.17 35.7831 285.08 36.412 285.656 37.3078C286.233 38.2037 286.428 39.2925 286.199 40.3329C286.057 40.9775 285.856 41.6207 285.583 42.2392C286.353 42.543 287.015 43.0807 287.471 43.7843C288.048 44.6746 288.248 45.7575 288.026 46.795L284.881 61.527C284.42 63.6875 282.294 65.065 280.134 64.6037L275.89 63.6976C274.852 63.4761 273.945 62.8515 273.368 61.9613C273.128 61.5904 272.953 61.1861 272.847 60.7655L272.081 61.3796C271.144 62.1319 269.918 62.4227 268.743 62.1718L264.8 61.33C264.282 61.2194 263.809 61.0133 263.396 60.7341C262.94 60.8568 262.454 60.9003 261.957 60.8503L257.638 60.4164C256.583 60.3103 255.613 59.7893 254.941 58.9679C254.661 58.6257 254.443 58.243 254.291 57.8367L253.598 58.5312C252.749 59.3819 251.563 59.8059 250.367 59.6857L246.355 59.2825C245.783 59.2251 245.236 59.0457 244.748 58.7627C244.243 58.9904 243.691 59.1129 243.127 59.1161L238.759 59.1403C237.698 59.1462 236.678 58.7304 235.924 57.9844C235.757 57.8198 235.607 57.6421 235.473 57.4537C235.342 57.6436 235.193 57.823 235.029 57.9894C234.283 58.7437 233.268 59.1708 232.207 59.1767L227.867 59.2008C227.271 59.2041 226.688 59.0743 226.158 58.8278C225.674 59.1259 225.119 59.3253 224.518 59.3945L220.178 59.8939C218.832 60.0488 217.565 59.5164 216.729 58.5751C216.619 58.7781 216.491 58.9724 216.345 59.1557C215.686 59.9867 214.723 60.5217 213.669 60.6429L209.358 61.1391C208.304 61.2604 207.245 60.958 206.414 60.2986C206.225 60.1485 206.051 59.9827 205.894 59.8037C205.597 60.1198 205.281 60.4217 204.947 60.7089L204.911 60.7391C203.277 62.1096 201.354 62.9904 199.254 63.4524C197.152 63.9146 195.038 63.9216 192.976 63.3758C192.961 63.3717 192.945 63.3675 192.93 63.3632C192.922 63.3612 192.915 63.3591 192.908 63.3571C191.816 63.0473 190.795 62.5985 189.858 62.0115C189.402 62.9629 188.807 63.8465 188.081 64.6517L188.066 64.6678C186.694 66.1716 184.995 67.2324 183.07 67.8763C182.9 67.9332 182.73 67.9863 182.558 68.0356L182.945 69.1919C183.282 70.198 183.205 71.2965 182.731 72.2459C182.258 73.1953 181.427 73.9176 180.421 74.2542L176.278 75.6397C174.183 76.3405 171.917 75.2102 171.216 73.1151L170.635 71.3797C170.228 72.0687 169.609 72.6422 168.822 72.9927L164.858 74.7582C164.046 75.1195 163.179 75.1889 162.374 75.0116C162.024 75.5587 161.54 76.0223 160.952 76.3505L156.452 78.8596C155.375 79.4603 154.084 79.5287 152.954 79.0533C152.769 80.2259 152.067 81.3048 150.95 81.9277L147.135 84.055C146.126 84.6176 144.978 84.6968 143.959 84.3685C143.005 86.4062 141.425 88.0946 139.478 89.4465C137.656 90.7118 135.659 91.5753 133.506 91.8859L133.461 91.8922C133.06 91.9454 132.66 91.9793 132.262 91.9935C132.275 92.1905 132.275 92.3894 132.259 92.5886C132.175 93.6462 131.674 94.627 130.867 95.3155L127.544 98.15C126.285 99.2239 124.552 99.3809 123.159 98.6855C123.162 98.8176 123.161 98.9502 123.158 99.0834C123.095 101.436 121.945 103.33 120.351 104.689C119.776 105.18 119.131 105.61 118.453 105.991ZM129.587 87.6512C129.749 87.7037 129.912 87.7503 130.077 87.791C130.835 87.978 131.626 88.0402 132.45 87.9776C132.611 87.9654 132.772 87.9485 132.935 87.9269C134.381 87.7183 135.801 87.1296 137.197 86.1608C137.228 86.1395 137.258 86.118 137.288 86.0966C138.065 85.548 138.718 84.9631 139.248 84.3419C139.409 84.1532 139.558 83.9611 139.697 83.7657C139.708 83.7499 139.719 83.7341 139.73 83.7182C140.109 83.1732 140.401 82.6023 140.604 82.0055C140.714 81.6815 140.799 81.3498 140.857 81.0105C140.88 80.8797 140.898 80.7477 140.913 80.6147L137.567 79.8702C137.549 79.9603 137.529 80.0491 137.508 80.1367C137.5 80.1686 137.492 80.2004 137.483 80.232C137.334 80.798 137.107 81.3088 136.803 81.7643C136.44 82.2889 135.937 82.7749 135.293 83.222C135.262 83.2434 135.231 83.2645 135.2 83.2852C134.296 83.8922 133.39 84.1918 132.484 84.1839C132.468 84.1838 132.453 84.1836 132.438 84.1833C132.424 84.183 132.409 84.1826 132.395 84.1822C132.045 84.1714 131.712 84.1154 131.396 84.0139C131.328 83.9921 131.261 83.9683 131.194 83.9423C130.774 83.7778 130.384 83.5295 130.026 83.1973L139.387 76.6978C139.244 76.4546 139.127 76.255 139.035 76.0989C138.888 75.8505 138.805 75.7121 138.785 75.6839C138.53 75.3172 138.262 74.9794 137.979 74.6707C137.926 74.6121 137.871 74.5544 137.817 74.4979C137.707 74.3848 137.596 74.276 137.483 74.1713C137.266 73.9712 137.042 73.7863 136.811 73.6168C136.769 73.5859 136.726 73.5556 136.684 73.5257C136.334 73.281 135.969 73.0704 135.587 72.8938C134.652 72.4406 133.685 72.205 132.687 72.1872C132.668 72.1869 132.649 72.1866 132.629 72.1865C132.33 72.1837 132.027 72.2004 131.722 72.2368C130.387 72.3959 129.117 72.8911 127.913 73.7225C127.905 73.7278 127.897 73.7332 127.89 73.7385C126.648 74.6008 125.712 75.6593 125.084 76.914C124.97 77.1386 124.868 77.3658 124.778 77.5957C124.376 78.6232 124.215 79.7032 124.296 80.8358C124.308 80.9977 124.326 81.1585 124.348 81.3183C124.359 81.3965 124.372 81.4745 124.386 81.5522C124.578 82.6493 125.02 83.6961 125.712 84.6926C126.564 85.9192 127.617 86.8132 128.87 87.3747C129.106 87.4802 129.345 87.5724 129.587 87.6512ZM128.285 80.5389C128.319 80.6448 128.358 80.7511 128.401 80.8576C128.439 80.9503 128.481 81.0432 128.527 81.1363L134.622 76.9044C134.42 76.6929 134.208 76.5099 133.987 76.3556C133.967 76.3418 133.948 76.3283 133.928 76.315C133.747 76.1938 133.56 76.0915 133.367 76.008C133.035 75.8645 132.685 75.7766 132.316 75.7441C132.256 75.7379 132.197 75.7332 132.138 75.7299C131.321 75.6848 130.541 75.9203 129.797 76.4365C129.789 76.4418 129.782 76.4471 129.774 76.4525C128.991 77.0027 128.48 77.6843 128.243 78.4974C128.242 78.5036 128.24 78.5098 128.238 78.5161C128.235 78.5266 128.232 78.5371 128.229 78.5477C128.128 78.9133 128.09 79.2825 128.114 79.6554C128.132 79.9456 128.189 80.238 128.283 80.5326C128.283 80.5347 128.284 80.5368 128.285 80.5389C128.285 80.5388 128.285 80.5389 128.285 80.5389ZM145.187 80.5614L149.002 78.4342L146.22 73.4453L148.201 72.3408L154.504 75.366L159.004 72.8569L150.27 68.7504L151.349 59.8773L147.29 62.141L146.569 69.243L144.515 70.3885L141.665 65.2773L137.85 67.4046L145.187 80.5614ZM154.978 66.5437L157.309 67.6399L156.533 65.8983L155.532 66.3442C155.351 66.4247 155.166 66.4912 154.978 66.5437ZM163.23 71.1042L167.195 69.3386L162.525 58.8515L167.18 56.7784L165.722 53.5044L152.447 59.4161L153.905 62.6902L158.56 60.6171L163.23 71.1042ZM175.009 71.8463L179.152 70.4607L176.922 63.7957C178.159 64.4889 179.543 64.654 181.074 64.2912C181.145 64.2744 181.216 64.2564 181.288 64.2373C181.457 64.1922 181.629 64.1407 181.802 64.0828C182.997 63.6828 184.011 63.0723 184.843 62.2512C184.934 62.1607 185.024 62.0677 185.111 61.9721C185.877 61.1227 186.407 60.1554 186.701 59.0703C186.749 58.8949 186.79 58.7164 186.825 58.5348C187.072 57.2123 186.949 55.8164 186.458 54.3471C186.446 54.3106 186.433 54.2743 186.421 54.2382C185.969 52.9334 185.318 51.8615 184.468 51.0224C184.394 50.949 184.318 50.8774 184.24 50.8076C183.248 49.8996 182.102 49.3282 180.803 49.0934C180.698 49.0724 180.593 49.0536 180.488 49.0373C179.303 48.8525 178.101 48.964 176.881 49.3719C176.641 49.4522 176.411 49.5393 176.192 49.6333C176.186 49.6359 176.18 49.6384 176.174 49.641C175.792 49.8054 175.441 49.9908 175.12 50.1972C174.122 50.8393 173.42 51.6842 173.015 52.7318L172.464 51.0854L168.508 52.4088L175.009 71.8463ZM174.701 56.3594C174.675 56.9285 174.77 57.5367 174.986 58.184C175.219 58.8792 175.537 59.4572 175.941 59.918C176.236 60.255 176.577 60.5293 176.964 60.7409C177.428 60.9801 177.91 61.1147 178.409 61.1447C178.905 61.1746 179.418 61.101 179.948 60.9237C180.197 60.8402 180.43 60.7407 180.645 60.6252C181.146 60.356 181.554 60.0001 181.867 59.5573C181.991 59.3822 182.1 59.1935 182.195 58.9912C182.642 58.0344 182.665 56.9542 182.262 55.7504C181.86 54.5466 181.195 53.7061 180.267 53.229C180.069 53.1205 179.867 53.032 179.662 52.9637C179.143 52.7909 178.601 52.7466 178.038 52.831C177.796 52.8673 177.551 52.9271 177.301 53.0107C176.735 53.1999 176.257 53.4745 175.865 53.8344C175.522 54.1501 175.245 54.5316 175.036 54.9787C174.835 55.41 174.723 55.8703 174.701 56.3594ZM188.717 49.9167C188.376 51.0908 188.34 52.328 188.607 53.6281C188.616 53.6691 188.625 53.7102 188.634 53.7514C188.954 55.2099 189.588 56.4372 190.533 57.4334C190.662 57.5691 190.795 57.6991 190.931 57.8236C191.437 58.2846 191.997 58.6681 192.611 58.9741C193.047 59.1916 193.51 59.3699 194 59.509C195.38 59.8744 196.845 59.8867 198.394 59.5458C199.944 59.2049 201.259 58.5811 202.34 57.6743C202.73 57.3399 203.078 56.9809 203.384 56.5973C203.893 55.96 204.286 55.2549 204.565 54.482C204.583 54.4334 204.6 54.3846 204.616 54.3355C205.056 53.0345 205.116 51.6548 204.795 50.1964C204.588 49.2521 204.249 48.4047 203.779 47.6542C203.524 47.2456 203.229 46.8656 202.896 46.5144C202.272 45.8569 201.557 45.3359 200.752 44.9514C200.337 44.7535 199.898 44.5917 199.435 44.4661C198.069 44.0785 196.611 44.0551 195.062 44.396C193.512 44.7369 192.19 45.3718 191.094 46.3008C190.732 46.6051 190.405 46.9316 190.114 47.2803C189.539 47.9707 189.105 48.748 188.813 49.6123C188.778 49.7133 188.747 49.8148 188.717 49.9167ZM193.371 49.613C193.441 49.4972 193.516 49.3868 193.595 49.2819C193.599 49.276 193.604 49.2702 193.608 49.2644C194.145 48.5604 194.886 48.1044 195.832 47.8963C196.767 47.6907 197.615 47.7902 198.377 48.1948C198.39 48.2021 198.404 48.2094 198.418 48.2169C198.533 48.2802 198.647 48.3505 198.758 48.428C198.78 48.4421 198.801 48.4564 198.822 48.4709C199.658 49.0457 200.209 49.9376 200.475 51.1468C200.737 52.341 200.62 53.3794 200.122 54.262C200.103 54.2956 200.084 54.329 200.064 54.3621C199.994 54.4778 199.919 54.588 199.84 54.6927C199.83 54.705 199.821 54.7172 199.811 54.7294C199.287 55.4014 198.558 55.8402 197.624 56.0455C196.689 56.2513 195.834 56.1595 195.061 55.7699C195.04 55.7593 195.019 55.7486 194.998 55.7376C194.889 55.6801 194.782 55.6166 194.677 55.5471C194.644 55.5255 194.613 55.5034 194.581 55.4808C193.759 54.8885 193.217 53.9953 192.954 52.801C192.688 51.5918 192.814 50.5511 193.331 49.6788C193.344 49.6567 193.358 49.6348 193.371 49.613ZM208.9 57.1653L213.212 56.6692L212.568 51.0781L219.077 50.329L219.721 55.9201L224.06 55.4208L222.338 40.4555L217.999 40.9549L218.671 46.7963L212.162 47.5454L211.49 41.7039L207.178 42.2001L208.9 57.1653ZM232.185 55.1767L232.153 49.5488L238.705 49.5125L238.736 55.1404L243.104 55.1161L243.021 40.0523L238.653 40.0766L238.686 45.9565L232.134 45.9929L232.101 40.113L227.761 40.1371L227.845 55.2008L232.185 55.1767ZM246.755 55.3026L248.261 40.3141L252.579 40.748L251.684 49.6631L259.879 41.4815L263.863 41.8818L262.356 56.8704L258.038 56.4364L258.934 47.5213L250.767 55.7057L246.755 55.3026ZM269.578 58.26L278.595 51.0232L276.725 59.7858L280.969 60.6919L284.114 45.9599L280.202 45.1247L280.198 45.1239L271.153 52.3548L273.024 43.5922L268.78 42.6861L265.635 57.4181L269.578 58.26ZM276.936 42.758C277.462 42.8481 277.951 42.888 278.403 42.8778C278.581 42.8738 278.753 42.862 278.919 42.8425C279.336 42.7933 279.718 42.6952 280.063 42.5481C280.35 42.4255 280.612 42.269 280.849 42.0784C281.111 41.8675 281.342 41.6149 281.542 41.3206C281.881 40.8235 282.131 40.2075 282.293 39.4726L279.445 38.8646C279.308 39.5035 279.019 39.9666 278.576 40.2537C278.161 40.5227 277.631 40.5909 276.986 40.4582C276.977 40.4563 276.968 40.4544 276.958 40.4525C276.301 40.3122 275.836 40.0316 275.563 39.6107C275.313 39.1754 275.247 38.6364 275.365 37.9935L272.572 37.3972C272.566 37.424 272.561 37.4506 272.556 37.4772C272.418 38.1823 272.399 38.82 272.5 39.3902C272.606 39.9893 272.844 40.514 273.213 40.9642C273.243 41.0011 273.274 41.0375 273.307 41.0734C273.373 41.1474 273.442 41.2192 273.516 41.2889C273.732 41.4936 273.98 41.68 274.261 41.848C274.856 42.2046 275.598 42.4787 276.485 42.6704C276.494 42.6724 276.503 42.6744 276.512 42.6763C276.604 42.696 276.696 42.7143 276.786 42.7311C276.836 42.7405 276.886 42.7495 276.936 42.758ZM304.93 72.6802C304.317 72.7473 303.691 72.6725 303.102 72.4539L299.008 70.9337C297.816 70.4915 296.961 69.5417 296.595 68.4205C295.587 69.0317 294.319 69.1932 293.128 68.7509L289.059 67.2405C288.064 66.8713 287.257 66.1222 286.815 65.1578C286.373 64.1935 286.332 63.093 286.701 62.0985L291.944 47.9762C292.713 45.9052 295.015 44.8495 297.086 45.6184L311.129 50.8317C311.521 50.977 311.883 51.1812 312.206 51.4341C312.276 51.2357 312.356 51.0392 312.446 50.8449C313.203 49.2141 314.541 48.022 316.262 47.4664C318.034 46.8942 319.77 47.1492 321.248 47.8352C322.686 48.5029 323.997 49.6229 324.727 51.3054C325.449 52.9679 325.43 54.7746 324.664 56.4245C324.454 56.8785 324.198 57.3026 323.901 57.691C324.79 57.5299 325.737 57.6675 326.581 58.145L338.013 64.6072C338.937 65.1292 339.615 65.9968 339.899 67.019C339.928 67.1241 339.953 67.23 339.974 67.3364C341.08 67.0524 342.299 67.2417 343.3 67.9592L355.476 76.686C356.586 77.4814 357.167 78.7398 357.145 80.0089C357.384 79.9511 357.63 79.9151 357.879 79.9022C358.938 79.8474 359.976 80.2157 360.764 80.9261L363.987 83.8324C365.162 84.8917 365.563 86.4895 365.152 87.9137L366.155 87.7611C367.341 87.5807 368.545 87.9418 369.436 88.7449L372.409 91.4262C373.751 92.6356 374.083 94.5468 373.351 96.1005C374.172 96.2183 374.984 96.426 375.782 96.7208C377.81 97.461 379.559 98.6922 381.028 100.299C382.479 101.886 383.544 103.727 384.023 105.821C384.544 107.978 384.358 110.146 383.458 112.183C382.615 114.092 380.446 115.032 378.476 114.342L377.665 114.057L377.877 114.92C378.378 116.954 377.225 119.03 375.233 119.679C373.144 120.361 371.001 120.325 368.933 119.648C366.88 118.986 365.133 117.758 363.677 116.166C362.217 114.569 361.143 112.736 360.57 110.674C360.564 110.652 360.557 110.629 360.552 110.607C360.458 110.248 360.382 109.887 360.321 109.527C360.166 109.553 360.009 109.571 359.85 109.579C358.79 109.634 357.753 109.266 356.965 108.555L353.741 105.649C352.572 104.595 352.17 103.008 352.57 101.589L351.602 101.738C350.414 101.921 349.206 101.56 348.314 100.755L345.319 98.0554C344.738 97.5315 344.347 96.876 344.149 96.1748C343.395 96.1331 342.663 95.8786 342.04 95.4321L338.489 92.8874C337.456 92.1471 336.881 91.0056 336.824 89.8278C335.69 90.152 334.425 89.974 333.392 89.2336L331.663 87.9945C331.193 88.4402 330.617 88.7693 329.981 88.9458C328.959 89.2297 327.866 89.0959 326.942 88.5739L323.408 86.5759C321.709 85.6153 320.982 83.5981 321.586 81.8148L319.213 80.4737C317.997 81.9108 315.893 82.3282 314.194 81.3676L310.66 79.3697C309.123 78.5009 308.381 76.7678 308.7 75.1251L306.619 74.159C305.921 73.8349 305.337 73.3193 304.93 72.6802ZM312.265 72.3701L318.608 58.7067L314.647 56.8674L308.303 70.5309L312.265 72.3701ZM316.526 70.2431L315.99 69.94L312.628 75.8875L316.162 77.8855L317.761 75.0579L326.975 80.2663L325.376 83.0938L328.911 85.0917L332.273 79.1441L330.396 78.0832L336.045 68.0894L324.613 61.6272L321.88 66.0645C321.855 66.1032 321.831 66.1416 321.807 66.1797C321.802 66.1874 321.797 66.1951 321.792 66.2027C321.254 67.0507 320.745 67.7791 320.265 68.3879C320.095 68.6023 319.93 68.8018 319.768 68.9865C319.753 69.003 319.739 69.0193 319.725 69.0355C319.717 69.0438 319.71 69.0521 319.702 69.0604C319.468 69.3236 319.241 69.5554 319.021 69.7557C318.624 70.1183 318.229 70.3459 317.836 70.4386C317.741 70.4609 317.646 70.4754 317.552 70.4821C317.208 70.5062 316.866 70.4265 316.526 70.2431ZM321.06 72.806C321.226 72.7566 321.39 72.6901 321.553 72.6064C321.568 72.5983 321.584 72.59 321.6 72.5815C321.981 72.3774 322.355 72.0789 322.72 71.686C322.814 71.5845 322.908 71.4767 323.002 71.3626C323.136 71.2042 323.275 71.0337 323.416 70.851C323.633 70.5711 323.859 70.2625 324.093 69.9254C324.432 69.4358 324.79 68.8858 325.165 68.2754L326.189 66.6349L330.479 69.0599L326.593 75.9337L321.06 72.806ZM320.698 55.2952C320.828 55.1312 320.941 54.9463 321.036 54.7402C321.319 54.1307 321.327 53.5167 321.058 52.8981C320.79 52.2795 320.291 51.8013 319.563 51.4633C318.835 51.1253 318.144 51.0618 317.491 51.2729C316.837 51.484 316.365 51.9027 316.074 52.5292C315.991 52.7079 315.931 52.887 315.892 53.0664C315.819 53.4146 315.829 53.7643 315.924 54.1153C315.952 54.2174 315.987 54.3197 316.029 54.4221C316.289 55.0576 316.784 55.5443 317.512 55.8823C318.24 56.2203 318.931 56.2838 319.584 56.0727C319.691 56.036 319.793 55.9936 319.89 55.9457C320.209 55.7888 320.478 55.572 320.698 55.2952ZM332.194 83.4541L335.722 85.9825L342.41 76.6517L347.507 80.3055L340.82 89.6363L344.37 92.1809L353.146 79.9371L340.97 71.2103L332.194 83.4541ZM356.42 102.678L359.643 105.585L369.731 94.3969L366.76 91.7183L366.757 91.7156L355.309 93.4576L361.309 86.8031L358.085 83.8969L347.998 95.0847L350.992 97.7847L362.42 96.024L356.42 102.678ZM364.244 106.455C364.163 106.989 364.14 107.527 364.174 108.071C364.207 108.577 364.29 109.088 364.423 109.602C364.808 110.985 365.537 112.267 366.61 113.446C366.616 113.453 366.623 113.459 366.629 113.466C367.607 114.536 368.676 115.29 369.837 115.728C369.947 115.77 370.058 115.808 370.169 115.844C371.165 116.172 372.145 116.255 373.109 116.094C373.397 116.046 373.684 115.976 373.969 115.884C373.977 115.882 373.985 115.879 373.993 115.876L373.07 112.129C372.976 112.152 372.883 112.171 372.79 112.188C372.284 112.282 371.808 112.292 371.362 112.218C371.353 112.217 371.344 112.216 371.336 112.214C370.557 112.08 369.87 111.691 369.274 111.048C369.268 111.041 369.261 111.034 369.255 111.027C368.596 110.306 368.237 109.507 368.178 108.628C368.176 108.605 368.175 108.582 368.174 108.559C368.168 108.436 368.167 108.311 368.173 108.184C368.176 108.128 368.179 108.072 368.185 108.016C368.275 107.027 368.77 106.121 369.67 105.298C370.552 104.491 371.48 104.079 372.453 104.062C372.528 104.061 372.603 104.062 372.678 104.065C372.808 104.071 372.936 104.083 373.061 104.101C373.068 104.102 373.076 104.103 373.083 104.104C373.968 104.235 374.744 104.665 375.413 105.396C375.419 105.403 375.425 105.41 375.431 105.417C376.015 106.063 376.338 106.783 376.401 107.577C376.403 107.601 376.405 107.625 376.406 107.649C376.432 108.078 376.382 108.529 376.256 109.001C376.231 109.098 376.202 109.196 376.17 109.295L379.799 110.567C379.811 110.539 379.823 110.512 379.835 110.484C379.954 110.204 380.051 109.921 380.126 109.635C380.371 108.695 380.372 107.729 380.129 106.737C380.105 106.629 380.078 106.522 380.049 106.416C379.717 105.213 379.06 104.074 378.076 102.998C378.07 102.991 378.064 102.985 378.057 102.978C376.979 101.804 375.761 100.97 374.404 100.476C373.889 100.285 373.374 100.15 372.856 100.071C372.851 100.07 372.846 100.069 372.84 100.068C372.016 99.9436 371.189 99.9597 370.357 100.117C370.186 100.151 370.018 100.191 369.851 100.237C368.702 100.555 367.646 101.153 366.684 102.033C365.582 103.041 364.836 104.203 364.447 105.521C364.36 105.83 364.292 106.142 364.244 106.455ZM372.135 108.238C372.135 108.238 372.136 108.238 372.136 108.24L372.135 108.238ZM304.395 56.4215L298.515 54.2387L294.52 65.001L290.451 63.4906L295.694 49.3683L309.737 54.5817L304.495 68.704L300.4 67.1838L304.395 56.4215Z" fill="white"/>
<path d="M113.05 100.588L115.677 103.108L105.171 114.06L91.0266 100.492L101.28 89.8024L103.907 92.3222L96.7741 99.7582L99.8455 102.704L106.145 96.1372L108.691 98.5795L102.392 105.147L105.665 108.287L113.05 100.588Z" fill="#3844AE"/>
<path d="M118.496 80.8107L128.271 92.2721L124.948 95.1066L117.498 86.3721L113.877 89.461L115.496 91.5757C116.723 93.1296 117.647 94.5006 118.268 95.6886C118.889 96.8766 119.186 97.9726 119.159 98.9768C119.132 99.981 118.664 100.871 117.755 101.646C117.273 102.058 116.625 102.463 115.812 102.862L113.656 99.9899C113.908 99.8245 114.083 99.6994 114.183 99.6146C114.68 99.1906 114.898 98.6981 114.836 98.1372C114.777 97.5498 114.554 96.9429 114.167 96.3163C113.767 95.6756 113.195 94.8754 112.45 93.9159L108.696 89.169L118.496 80.8107Z" fill="#3844AE"/>
<path d="M138.785 75.6839C138.817 75.7299 139.018 76.0679 139.387 76.6978L130.026 83.1973C130.727 83.8469 131.546 84.1757 132.484 84.1839C133.421 84.192 134.357 83.8714 135.293 83.222C135.937 82.7748 136.44 82.2889 136.803 81.7643C137.17 81.2136 137.425 80.5822 137.567 79.8701L140.913 80.6146C140.674 82.7577 139.435 84.6064 137.197 86.1608C135.801 87.1296 134.381 87.7183 132.935 87.9269C131.478 88.1202 130.123 87.9361 128.87 87.3746C127.617 86.8132 126.564 85.9192 125.712 84.6926C124.871 83.4812 124.399 82.1957 124.296 80.8358C124.197 79.4499 124.46 78.1426 125.084 76.914C125.712 75.6593 126.648 74.6008 127.89 73.7385C129.101 72.8974 130.378 72.3969 131.722 72.2368C133.065 72.0768 134.353 72.2958 135.587 72.8938C136.825 73.4659 137.891 74.3959 138.785 75.6839ZM129.797 76.4364C128.984 77.0007 128.462 77.7044 128.229 78.5477C127.997 79.391 128.096 80.2538 128.527 81.1363L134.622 76.9044C133.956 76.2076 133.187 75.8208 132.316 75.7441C131.434 75.6521 130.594 75.8828 129.797 76.4364Z" fill="#3844AE"/>
<path d="M148.201 72.3408L146.22 73.4453L149.002 78.4342L145.187 80.5614L137.85 67.4046L141.665 65.2773L144.515 70.3884L146.569 69.243L147.29 62.141L151.349 59.8773L150.27 68.7504L159.004 72.8569L154.504 75.366L148.201 72.3408Z" fill="#3844AE"/>
<path d="M167.18 56.7784L162.525 58.8515L167.195 69.3386L163.23 71.1042L158.56 60.617L153.905 62.6901L152.447 59.4161L165.722 53.5044L167.18 56.7784Z" fill="#3844AE"/>
<path d="M176.881 49.3719C178.209 48.9278 179.516 48.835 180.803 49.0934C182.102 49.3282 183.248 49.8996 184.24 50.8076C185.227 51.6979 185.966 52.8777 186.458 54.3471C186.949 55.8164 187.072 57.2123 186.825 58.5348C186.573 59.8396 186.001 60.9854 185.111 61.9721C184.232 62.9352 183.129 63.6387 181.802 64.0828C179.978 64.6927 178.352 64.597 176.922 63.7957L179.152 70.4607L175.009 71.8463L168.508 52.4088L172.464 51.0854L173.015 52.7317C173.627 51.1491 174.916 50.0292 176.881 49.3719ZM179.948 60.9237C181.01 60.5685 181.759 59.9243 182.195 58.9912C182.642 58.0344 182.665 56.9542 182.262 55.7504C181.86 54.5466 181.195 53.7061 180.267 53.2289C179.352 52.7281 178.363 52.6554 177.301 53.0106C176.239 53.3659 175.484 54.0219 175.036 54.9787C174.6 55.9118 174.584 56.9802 174.986 58.184C175.389 59.3878 176.048 60.2401 176.964 60.7409C177.891 61.2181 178.886 61.279 179.948 60.9237Z" fill="#3844AE"/>
<path d="M198.394 59.5458C196.845 59.8866 195.38 59.8744 194 59.509C192.634 59.1214 191.478 58.4295 190.533 57.4333C189.588 56.4372 188.954 55.2099 188.634 53.7514C188.313 52.293 188.372 50.9133 188.813 49.6123C189.253 48.3114 190.013 47.2076 191.094 46.3008C192.19 45.3718 193.512 44.7368 195.062 44.396C196.611 44.0551 198.069 44.0785 199.435 44.4661C200.797 44.8355 201.95 45.5183 202.896 46.5144C203.841 47.5106 204.474 48.7379 204.795 50.1963C205.116 51.6548 205.056 53.0345 204.616 54.3354C204.176 55.6364 203.418 56.7493 202.34 57.6743C201.259 58.5811 199.944 59.2049 198.394 59.5458ZM197.624 56.0455C198.718 55.8048 199.531 55.2437 200.064 54.3621C200.61 53.4582 200.747 52.3865 200.475 51.1468C200.202 49.9071 199.63 49.0008 198.758 48.428C197.901 47.8329 196.926 47.6557 195.832 47.8963C194.738 48.1369 193.918 48.7091 193.371 49.613C192.821 50.4986 192.682 51.5613 192.954 52.801C193.227 54.0407 193.801 54.9561 194.677 55.5471C195.548 56.12 196.531 56.2861 197.624 56.0455Z" fill="#3844AE"/>
<path d="M207.178 42.2001L211.49 41.7039L212.162 47.5454L218.671 46.7963L217.999 40.9549L222.338 40.4555L224.06 55.4207L219.721 55.9201L219.077 50.329L212.568 51.0781L213.212 56.6692L208.9 57.1653L207.178 42.2001Z" fill="#3844AE"/>
<path d="M227.761 40.137L232.101 40.113L232.134 45.9929L238.686 45.9565L238.653 40.0766L243.021 40.0523L243.104 55.1161L238.736 55.1403L238.705 49.5124L232.153 49.5488L232.185 55.1767L227.845 55.2008L227.761 40.137Z" fill="#3844AE"/>
<path d="M248.261 40.3141L252.579 40.748L251.684 49.6631L259.879 41.4815L263.863 41.8818L262.356 56.8703L258.038 56.4364L258.934 47.5213L250.767 55.7057L246.755 55.3026L248.261 40.3141Z" fill="#3844AE"/>
<path d="M268.78 42.6861L273.024 43.5922L271.153 52.3548L280.198 45.1239L284.114 45.9599L280.969 60.6919L276.725 59.7857L278.595 51.0232L269.578 58.2599L265.635 57.4181L268.78 42.6861ZM276.512 42.6763C273.299 41.9904 271.986 40.2307 272.572 37.3972L275.365 37.9935C275.247 38.6363 275.313 39.1754 275.563 39.6106C275.836 40.0315 276.301 40.3121 276.958 40.4524C277.616 40.5928 278.155 40.5265 278.576 40.2537C279.019 39.9665 279.308 39.5035 279.445 38.8646L282.293 39.4725C281.67 42.2982 279.743 43.3661 276.512 42.6763Z" fill="#3844AE"/>
<path d="M309.737 54.5817L304.495 68.704L300.4 67.1838L304.395 56.4215L298.515 54.2386L294.52 65.001L290.451 63.4906L295.694 49.3683L309.737 54.5817Z" fill="#3844AE"/>
<path d="M314.647 56.8674L318.608 58.7067L312.265 72.3701L308.303 70.5309L314.647 56.8674ZM317.512 55.8823C316.784 55.5443 316.289 55.0576 316.029 54.4221C315.768 53.7866 315.783 53.1556 316.074 52.5291C316.365 51.9027 316.837 51.4839 317.491 51.2729C318.144 51.0618 318.835 51.1253 319.563 51.4633C320.291 51.8012 320.79 52.2795 321.058 52.8981C321.327 53.5167 321.319 54.1307 321.036 54.7402C320.73 55.4005 320.246 55.8447 319.584 56.0727C318.931 56.2837 318.24 56.2203 317.512 55.8823Z" fill="#3844AE"/>
<path d="M332.273 79.1441L328.911 85.0917L325.376 83.0938L326.975 80.2662L317.761 75.0579L316.162 77.8854L312.628 75.8875L315.99 69.94L316.526 70.2431C317.348 70.6862 318.18 70.5237 319.021 69.7557C319.863 68.9877 320.816 67.7573 321.88 66.0645L324.613 61.6272L336.045 68.0894L330.396 78.0832L332.273 79.1441ZM325.165 68.2754C324.363 69.5804 323.642 70.6094 323.002 71.3626C322.378 72.1249 321.731 72.606 321.06 72.806L326.593 75.9337L330.479 69.0599L326.189 66.6349L325.165 68.2754Z" fill="#3844AE"/>
<path d="M353.146 79.9371L344.37 92.1809L340.82 89.6363L347.507 80.3055L342.41 76.6517L335.722 85.9824L332.194 83.4541L340.97 71.2103L353.146 79.9371Z" fill="#3844AE"/>
<path d="M358.085 83.8969L361.309 86.8031L355.309 93.4576L366.757 91.7156L369.731 94.3969L359.643 105.585L356.42 102.678L362.42 96.024L350.992 97.7846L347.998 95.0846L358.085 83.8969Z" fill="#3844AE"/>
<path d="M366.629 113.466C365.546 112.282 364.81 110.994 364.423 109.602C364.063 108.212 364.071 106.851 364.447 105.521C364.836 104.203 365.582 103.041 366.684 102.033C367.786 101.026 369.01 100.387 370.357 100.116C371.716 99.8601 373.065 99.9799 374.404 100.476C375.769 100.973 376.993 101.814 378.076 102.998C379.147 104.169 379.831 105.415 380.129 106.737C380.453 108.059 380.343 109.336 379.799 110.567L376.17 109.295C376.66 107.784 376.408 106.484 375.413 105.396C374.644 104.556 373.733 104.112 372.678 104.065C371.623 104.018 370.62 104.429 369.67 105.298C368.719 106.167 368.22 107.129 368.173 108.184C368.126 109.239 368.487 110.187 369.255 111.027C370.263 112.129 371.535 112.496 373.07 112.129L373.993 115.876C372.746 116.283 371.471 116.272 370.169 115.844C368.88 115.43 367.7 114.637 366.629 113.466Z" fill="#3844AE"/>
<mask id="path-6-outside-1" maskUnits="userSpaceOnUse" x="74.8624" y="325.562" width="320.042" height="111.118" fill="black">
<rect fill="white" x="74.8624" y="325.562" width="320.042" height="111.118"/>
<path d="M105.506 347.371L90.282 359.716L87.4427 356.214L99.7957 346.197L94.2228 339.325L81.8698 349.342L79.0305 345.841L94.2543 333.496L105.506 347.371Z"/>
<path d="M105.358 353.606L108.398 356.743L97.5814 367.228L94.5412 364.091L105.358 353.606ZM108.386 353.713C107.827 353.137 107.54 352.505 107.524 351.818C107.508 351.132 107.748 350.548 108.244 350.067C108.74 349.587 109.331 349.365 110.017 349.402C110.703 349.439 111.325 349.746 111.884 350.322C112.443 350.898 112.736 351.523 112.766 352.197C112.795 352.871 112.568 353.442 112.085 353.909C111.563 354.416 110.952 354.657 110.252 354.633C109.567 354.596 108.944 354.289 108.386 353.713Z"/>
<path d="M116.155 379.439L111.627 384.555L108.587 381.865L110.74 379.432L102.814 372.418L100.662 374.85L97.6213 372.159L102.149 367.043L102.611 367.451C103.322 368.056 104.169 368.07 105.152 367.495C106.135 366.919 107.324 365.914 108.717 364.48L112.316 360.71L122.149 369.414L114.541 378.01L116.155 379.439ZM111.47 367.328C110.413 368.437 109.493 369.293 108.71 369.896C107.941 370.512 107.208 370.847 106.51 370.903L111.27 375.116L116.503 369.203L112.813 365.937L111.47 367.328Z"/>
<path d="M138.212 381.138L129.525 393.445L125.957 390.926L132.577 381.547L127.453 377.93L120.833 387.309L117.287 384.806L125.974 372.5L138.212 381.138Z"/>
<path d="M142.007 383.552L145.802 385.656L141.458 393.493L152.218 389.213L155.72 391.155L148.417 404.329L144.621 402.225L148.965 394.389L138.229 398.682L134.703 396.727L142.007 383.552Z"/>
<path d="M159.741 409.638C158.266 409.003 157.067 408.131 156.142 407.022C155.242 405.903 154.689 404.66 154.486 403.292C154.299 401.931 154.501 400.565 155.091 399.193C155.681 397.821 156.535 396.736 157.651 395.936C158.785 395.143 160.063 394.698 161.488 394.6C162.936 394.491 164.398 394.755 165.873 395.389C167.33 396.016 168.466 396.871 169.281 397.953C170.12 399.025 170.545 400.234 170.555 401.58L166.723 401.913C166.549 400.334 165.785 399.253 164.43 398.67C163.384 398.22 162.371 398.19 161.39 398.581C160.409 398.972 159.664 399.759 159.155 400.942C158.646 402.125 158.586 403.207 158.977 404.188C159.368 405.169 160.086 405.885 161.132 406.335C162.504 406.925 163.814 406.737 165.063 405.771L167.445 408.807C166.475 409.691 165.309 410.205 163.946 410.35C162.6 410.502 161.198 410.265 159.741 409.638Z"/>
<path d="M180.134 400.729C182.353 401.452 183.883 402.539 184.726 403.991C185.574 405.426 185.651 407.208 184.958 409.338L182.296 417.511L178.409 416.246L178.99 414.462C177.776 415.539 176.103 415.731 173.974 415.037C172.873 414.679 171.975 414.18 171.28 413.542C170.603 412.909 170.158 412.195 169.946 411.399C169.734 410.604 169.763 409.789 170.035 408.955C170.469 407.624 171.307 406.738 172.549 406.299C173.809 405.865 175.487 405.989 177.581 406.671L180.882 407.746C181.177 406.841 181.127 406.059 180.733 405.4C180.345 404.724 179.6 404.207 178.5 403.849C177.737 403.6 176.942 403.479 176.115 403.485C175.313 403.478 174.587 403.596 173.94 403.836L173.394 400.449C174.354 400.153 175.424 400.03 176.605 400.081C177.804 400.138 178.98 400.354 180.134 400.729ZM175.922 412.58C176.632 412.811 177.314 412.856 177.968 412.716C178.629 412.558 179.178 412.197 179.617 411.633L180.094 410.169L177.245 409.241C175.541 408.686 174.507 408.968 174.143 410.086C173.969 410.619 174.035 411.111 174.339 411.563C174.667 412.004 175.194 412.343 175.922 412.58Z"/>
<path d="M190.411 404.168L194.653 405.084L193.411 410.832L199.815 412.215L201.057 406.468L205.327 407.39L202.145 422.115L197.876 421.192L199.064 415.691L192.66 414.307L191.472 419.808L187.23 418.892L190.411 404.168Z"/>
<path d="M214.691 424.008C213.114 423.832 211.731 423.349 210.542 422.559C209.374 421.752 208.502 420.726 207.927 419.478C207.353 418.231 207.148 416.865 207.314 415.381C207.479 413.897 207.979 412.61 208.815 411.519C209.65 410.429 210.725 409.629 212.041 409.118C213.377 408.591 214.833 408.415 216.41 408.591C217.987 408.767 219.36 409.258 220.528 410.065C221.699 410.853 222.571 411.87 223.146 413.118C223.721 414.365 223.925 415.731 223.76 417.215C223.594 418.699 223.094 419.986 222.259 421.076C221.423 422.166 220.347 422.976 219.029 423.505C217.714 424.016 216.268 424.183 214.691 424.008ZM215.088 420.446C216.201 420.57 217.152 420.3 217.939 419.637C218.748 418.957 219.222 417.986 219.363 416.725C219.504 415.463 219.254 414.421 218.613 413.598C217.993 412.759 217.126 412.277 216.013 412.153C214.9 412.029 213.939 412.307 213.131 412.987C212.324 413.648 211.851 414.61 211.71 415.871C211.57 417.133 211.819 418.184 212.457 419.025C213.098 419.848 213.975 420.322 215.088 420.446Z"/>
<path d="M249.768 409.624L243.406 425.792C242.763 427.547 241.938 428.793 240.931 429.53C239.943 430.267 238.731 430.655 237.294 430.694C236.51 430.716 235.733 430.616 234.961 430.394C234.189 430.173 233.555 429.854 233.058 429.438L234.568 426.288C234.912 426.577 235.301 426.8 235.735 426.956C236.187 427.111 236.628 427.183 237.057 427.172C237.654 427.155 238.135 426.992 238.5 426.684C238.866 426.394 239.188 425.908 239.469 425.229L239.521 425.087L232.582 410.096L237.088 409.972L241.596 420.072L245.569 409.739L249.768 409.624Z"/>
<path d="M267.604 406.977C268.985 406.743 270.291 406.854 271.522 407.308C272.769 407.741 273.813 408.483 274.653 409.533C275.49 410.565 276.038 411.845 276.296 413.373C276.554 414.901 276.46 416.299 276.011 417.567C275.56 418.817 274.818 419.861 273.786 420.698C272.769 421.514 271.571 422.038 270.19 422.271C268.294 422.592 266.702 422.246 265.414 421.233L266.586 428.163L262.279 428.891L258.862 408.682L262.976 407.986L263.265 409.698C264.115 408.229 265.561 407.322 267.604 406.977ZM268.847 418.864C269.952 418.677 270.791 418.156 271.366 417.302C271.956 416.426 272.146 415.362 271.934 414.111C271.722 412.859 271.196 411.926 270.353 411.311C269.526 410.675 268.561 410.45 267.456 410.636C266.352 410.823 265.505 411.354 264.914 412.23C264.339 413.085 264.158 414.138 264.369 415.39C264.581 416.641 265.1 417.585 265.927 418.221C266.77 418.836 267.743 419.05 268.847 418.864Z"/>
<path d="M289.032 417.981C287.504 418.407 286.041 418.476 284.642 418.188C283.257 417.877 282.065 417.25 281.066 416.308C280.067 415.366 279.366 414.176 278.965 412.737C278.564 411.299 278.547 409.918 278.914 408.594C279.282 407.271 279.98 406.127 281.009 405.161C282.051 404.173 283.336 403.466 284.865 403.04C286.393 402.613 287.85 402.556 289.235 402.867C290.615 403.16 291.805 403.778 292.804 404.72C293.803 405.662 294.503 406.853 294.905 408.291C295.306 409.73 295.323 411.11 294.956 412.434C294.588 413.757 293.893 414.91 292.868 415.894C291.839 416.859 290.561 417.555 289.032 417.981ZM288.069 414.529C289.148 414.228 289.929 413.623 290.411 412.713C290.907 411.78 290.984 410.702 290.643 409.48C290.302 408.257 289.681 407.384 288.779 406.86C287.89 406.314 286.906 406.191 285.827 406.492C284.749 406.793 283.961 407.41 283.466 408.342C282.965 409.257 282.885 410.326 283.226 411.549C283.567 412.771 284.191 413.653 285.098 414.195C286 414.719 286.99 414.83 288.069 414.529Z"/>
<path d="M300.42 400.26C300.654 399.395 301.116 398.633 301.807 397.976C302.514 397.311 303.41 396.776 304.494 396.37L305.91 400.145C305.442 400.28 305.13 400.378 304.972 400.437C303.801 400.876 303.008 401.552 302.593 402.465C302.172 403.361 302.207 404.464 302.698 405.775L305.196 412.434L301.106 413.968L295.816 399.864L299.722 398.398L300.42 400.26Z"/>
<path d="M322.419 404.226C322.162 404.693 321.78 405.136 321.273 405.554C320.776 405.947 320.214 406.288 319.586 406.577C317.958 407.326 316.504 407.491 315.223 407.074C313.959 406.649 312.956 405.631 312.215 404.02L309.629 398.398L307.517 399.369L306.113 396.317L308.224 395.345L306.691 392.013L310.66 390.188L312.193 393.52L315.601 391.952L317.006 395.004L313.597 396.572L316.16 402.143C316.425 402.72 316.776 403.103 317.212 403.292C317.658 403.457 318.152 403.415 318.695 403.165C319.322 402.876 319.779 402.461 320.063 401.919L322.419 404.226Z"/>
<path d="M327.701 402.495C327.025 402.854 326.334 402.926 325.627 402.71C324.92 402.493 324.383 402.039 324.015 401.347C323.638 400.638 323.566 399.947 323.8 399.273C324.025 398.583 324.475 398.058 325.151 397.699C325.827 397.339 326.514 397.259 327.212 397.459C327.901 397.642 328.434 398.088 328.811 398.797C329.179 399.489 329.255 400.189 329.039 400.896C328.823 401.603 328.377 402.136 327.701 402.495Z"/>
<path d="M325.884 386.049L329.642 383.823L337.319 396.784L333.561 399.01L325.884 386.049ZM326.692 383.129C326.002 383.538 325.321 383.671 324.649 383.526C323.978 383.381 323.466 383.012 323.114 382.418C322.762 381.823 322.684 381.197 322.88 380.539C323.076 379.88 323.519 379.347 324.209 378.937C324.9 378.528 325.576 378.388 326.238 378.517C326.9 378.645 327.402 378.999 327.745 379.577C328.116 380.203 328.208 380.854 328.022 381.528C327.826 382.186 327.383 382.72 326.692 383.129Z"/>
<path d="M340.693 376.26C342.221 375.188 343.773 374.783 345.348 375.046C346.939 375.298 348.367 376.325 349.632 378.128L354.586 385.187L351.01 387.696L346.442 381.187C345.756 380.209 345.033 379.634 344.273 379.46C343.502 379.271 342.711 379.461 341.902 380.03C341 380.662 340.48 381.449 340.342 382.389C340.193 383.315 340.505 384.328 341.277 385.428L345.555 391.524L341.98 394.033L333.327 381.703L336.742 379.306L337.755 380.75C337.864 379.898 338.174 379.088 338.684 378.32C339.183 377.536 339.853 376.85 340.693 376.26Z"/>
<path d="M360.719 380.427C360.128 380.913 359.465 381.121 358.729 381.05C357.993 380.979 357.376 380.641 356.878 380.036C356.367 379.416 356.159 378.753 356.254 378.046C356.337 377.325 356.674 376.721 357.265 376.234C357.856 375.747 358.513 375.532 359.237 375.589C359.949 375.631 360.56 375.962 361.07 376.582C361.569 377.187 361.782 377.857 361.711 378.593C361.64 379.329 361.309 379.94 360.719 380.427Z"/>
<path d="M366.585 354.365L377.028 365.222L374.042 368.095L372.8 366.803C372.835 367.675 372.687 368.517 372.355 369.329C372.009 370.128 371.5 370.851 370.827 371.498C369.401 372.869 367.876 373.546 366.253 373.528C364.63 373.509 363.041 372.693 361.488 371.079L355.587 364.944L358.736 361.916L364.19 367.586C365.872 369.335 367.447 369.505 368.913 368.094C369.666 367.369 370.039 366.545 370.03 365.621C370.009 364.683 369.532 363.73 368.601 362.761L363.437 357.393L366.585 354.365Z"/>
<path d="M373.267 346.42C374.773 344.637 376.357 343.63 378.02 343.398C379.668 343.154 381.348 343.754 383.059 345.2L389.624 350.749L386.985 353.871L385.553 352.66C386.092 354.191 385.638 355.812 384.192 357.523C383.445 358.407 382.645 359.05 381.791 359.453C380.95 359.842 380.121 359.984 379.304 359.88C378.487 359.777 377.744 359.442 377.074 358.876C376.004 357.972 375.501 356.862 375.562 355.545C375.636 354.214 376.384 352.708 377.806 351.026L380.047 348.374C379.32 347.759 378.577 347.51 377.819 347.627C377.046 347.732 376.286 348.226 375.539 349.11C375.021 349.723 374.608 350.413 374.302 351.181C373.993 351.922 373.828 352.638 373.807 353.328L370.464 352.556C370.552 351.555 370.842 350.517 371.335 349.443C371.839 348.354 372.483 347.346 373.267 346.42ZM382.652 354.791C383.134 354.221 383.433 353.606 383.55 352.948C383.653 352.277 383.526 351.632 383.169 351.013L381.993 350.019L380.059 352.307C378.902 353.675 378.773 354.739 379.671 355.498C380.099 355.86 380.58 355.985 381.113 355.874C381.645 355.737 382.158 355.376 382.652 354.791Z"/>
</mask>
<path d="M105.506 347.371L90.282 359.716L87.4427 356.214L99.7957 346.197L94.2228 339.325L81.8698 349.342L79.0305 345.841L94.2543 333.496L105.506 347.371Z" fill="white"/>
<path d="M105.358 353.606L108.398 356.743L97.5814 367.228L94.5412 364.091L105.358 353.606ZM108.386 353.713C107.827 353.137 107.54 352.505 107.524 351.818C107.508 351.132 107.748 350.548 108.244 350.067C108.74 349.587 109.331 349.365 110.017 349.402C110.703 349.439 111.325 349.746 111.884 350.322C112.443 350.898 112.736 351.523 112.766 352.197C112.795 352.871 112.568 353.442 112.085 353.909C111.563 354.416 110.952 354.657 110.252 354.633C109.567 354.596 108.944 354.289 108.386 353.713Z" fill="white"/>
<path d="M116.155 379.439L111.627 384.555L108.587 381.865L110.74 379.432L102.814 372.418L100.662 374.85L97.6213 372.159L102.149 367.043L102.611 367.451C103.322 368.056 104.169 368.07 105.152 367.495C106.135 366.919 107.324 365.914 108.717 364.48L112.316 360.71L122.149 369.414L114.541 378.01L116.155 379.439ZM111.47 367.328C110.413 368.437 109.493 369.293 108.71 369.896C107.941 370.512 107.208 370.847 106.51 370.903L111.27 375.116L116.503 369.203L112.813 365.937L111.47 367.328Z" fill="white"/>
<path d="M138.212 381.138L129.525 393.445L125.957 390.926L132.577 381.547L127.453 377.93L120.833 387.309L117.287 384.806L125.974 372.5L138.212 381.138Z" fill="white"/>
<path d="M142.007 383.552L145.802 385.656L141.458 393.493L152.218 389.213L155.72 391.155L148.417 404.329L144.621 402.225L148.965 394.389L138.229 398.682L134.703 396.727L142.007 383.552Z" fill="white"/>
<path d="M159.741 409.638C158.266 409.003 157.067 408.131 156.142 407.022C155.242 405.903 154.689 404.66 154.486 403.292C154.299 401.931 154.501 400.565 155.091 399.193C155.681 397.821 156.535 396.736 157.651 395.936C158.785 395.143 160.063 394.698 161.488 394.6C162.936 394.491 164.398 394.755 165.873 395.389C167.33 396.016 168.466 396.871 169.281 397.953C170.12 399.025 170.545 400.234 170.555 401.58L166.723 401.913C166.549 400.334 165.785 399.253 164.43 398.67C163.384 398.22 162.371 398.19 161.39 398.581C160.409 398.972 159.664 399.759 159.155 400.942C158.646 402.125 158.586 403.207 158.977 404.188C159.368 405.169 160.086 405.885 161.132 406.335C162.504 406.925 163.814 406.737 165.063 405.771L167.445 408.807C166.475 409.691 165.309 410.205 163.946 410.35C162.6 410.502 161.198 410.265 159.741 409.638Z" fill="white"/>
<path d="M180.134 400.729C182.353 401.452 183.883 402.539 184.726 403.991C185.574 405.426 185.651 407.208 184.958 409.338L182.296 417.511L178.409 416.246L178.99 414.462C177.776 415.539 176.103 415.731 173.974 415.037C172.873 414.679 171.975 414.18 171.28 413.542C170.603 412.909 170.158 412.195 169.946 411.399C169.734 410.604 169.763 409.789 170.035 408.955C170.469 407.624 171.307 406.738 172.549 406.299C173.809 405.865 175.487 405.989 177.581 406.671L180.882 407.746C181.177 406.841 181.127 406.059 180.733 405.4C180.345 404.724 179.6 404.207 178.5 403.849C177.737 403.6 176.942 403.479 176.115 403.485C175.313 403.478 174.587 403.596 173.94 403.836L173.394 400.449C174.354 400.153 175.424 400.03 176.605 400.081C177.804 400.138 178.98 400.354 180.134 400.729ZM175.922 412.58C176.632 412.811 177.314 412.856 177.968 412.716C178.629 412.558 179.178 412.197 179.617 411.633L180.094 410.169L177.245 409.241C175.541 408.686 174.507 408.968 174.143 410.086C173.969 410.619 174.035 411.111 174.339 411.563C174.667 412.004 175.194 412.343 175.922 412.58Z" fill="white"/>
<path d="M190.411 404.168L194.653 405.084L193.411 410.832L199.815 412.215L201.057 406.468L205.327 407.39L202.145 422.115L197.876 421.192L199.064 415.691L192.66 414.307L191.472 419.808L187.23 418.892L190.411 404.168Z" fill="white"/>
<path d="M214.691 424.008C213.114 423.832 211.731 423.349 210.542 422.559C209.374 421.752 208.502 420.726 207.927 419.478C207.353 418.231 207.148 416.865 207.314 415.381C207.479 413.897 207.979 412.61 208.815 411.519C209.65 410.429 210.725 409.629 212.041 409.118C213.377 408.591 214.833 408.415 216.41 408.591C217.987 408.767 219.36 409.258 220.528 410.065C221.699 410.853 222.571 411.87 223.146 413.118C223.721 414.365 223.925 415.731 223.76 417.215C223.594 418.699 223.094 419.986 222.259 421.076C221.423 422.166 220.347 422.976 219.029 423.505C217.714 424.016 216.268 424.183 214.691 424.008ZM215.088 420.446C216.201 420.57 217.152 420.3 217.939 419.637C218.748 418.957 219.222 417.986 219.363 416.725C219.504 415.463 219.254 414.421 218.613 413.598C217.993 412.759 217.126 412.277 216.013 412.153C214.9 412.029 213.939 412.307 213.131 412.987C212.324 413.648 211.851 414.61 211.71 415.871C211.57 417.133 211.819 418.184 212.457 419.025C213.098 419.848 213.975 420.322 215.088 420.446Z" fill="white"/>
<path d="M249.768 409.624L243.406 425.792C242.763 427.547 241.938 428.793 240.931 429.53C239.943 430.267 238.731 430.655 237.294 430.694C236.51 430.716 235.733 430.616 234.961 430.394C234.189 430.173 233.555 429.854 233.058 429.438L234.568 426.288C234.912 426.577 235.301 426.8 235.735 426.956C236.187 427.111 236.628 427.183 237.057 427.172C237.654 427.155 238.135 426.992 238.5 426.684C238.866 426.394 239.188 425.908 239.469 425.229L239.521 425.087L232.582 410.096L237.088 409.972L241.596 420.072L245.569 409.739L249.768 409.624Z" fill="white"/>
<path d="M267.604 406.977C268.985 406.743 270.291 406.854 271.522 407.308C272.769 407.741 273.813 408.483 274.653 409.533C275.49 410.565 276.038 411.845 276.296 413.373C276.554 414.901 276.46 416.299 276.011 417.567C275.56 418.817 274.818 419.861 273.786 420.698C272.769 421.514 271.571 422.038 270.19 422.271C268.294 422.592 266.702 422.246 265.414 421.233L266.586 428.163L262.279 428.891L258.862 408.682L262.976 407.986L263.265 409.698C264.115 408.229 265.561 407.322 267.604 406.977ZM268.847 418.864C269.952 418.677 270.791 418.156 271.366 417.302C271.956 416.426 272.146 415.362 271.934 414.111C271.722 412.859 271.196 411.926 270.353 411.311C269.526 410.675 268.561 410.45 267.456 410.636C266.352 410.823 265.505 411.354 264.914 412.23C264.339 413.085 264.158 414.138 264.369 415.39C264.581 416.641 265.1 417.585 265.927 418.221C266.77 418.836 267.743 419.05 268.847 418.864Z" fill="white"/>
<path d="M289.032 417.981C287.504 418.407 286.041 418.476 284.642 418.188C283.257 417.877 282.065 417.25 281.066 416.308C280.067 415.366 279.366 414.176 278.965 412.737C278.564 411.299 278.547 409.918 278.914 408.594C279.282 407.271 279.98 406.127 281.009 405.161C282.051 404.173 283.336 403.466 284.865 403.04C286.393 402.613 287.85 402.556 289.235 402.867C290.615 403.16 291.805 403.778 292.804 404.72C293.803 405.662 294.503 406.853 294.905 408.291C295.306 409.73 295.323 411.11 294.956 412.434C294.588 413.757 293.893 414.91 292.868 415.894C291.839 416.859 290.561 417.555 289.032 417.981ZM288.069 414.529C289.148 414.228 289.929 413.623 290.411 412.713C290.907 411.78 290.984 410.702 290.643 409.48C290.302 408.257 289.681 407.384 288.779 406.86C287.89 406.314 286.906 406.191 285.827 406.492C284.749 406.793 283.961 407.41 283.466 408.342C282.965 409.257 282.885 410.326 283.226 411.549C283.567 412.771 284.191 413.653 285.098 414.195C286 414.719 286.99 414.83 288.069 414.529Z" fill="white"/>
<path d="M300.42 400.26C300.654 399.395 301.116 398.633 301.807 397.976C302.514 397.311 303.41 396.776 304.494 396.37L305.91 400.145C305.442 400.28 305.13 400.378 304.972 400.437C303.801 400.876 303.008 401.552 302.593 402.465C302.172 403.361 302.207 404.464 302.698 405.775L305.196 412.434L301.106 413.968L295.816 399.864L299.722 398.398L300.42 400.26Z" fill="white"/>
<path d="M322.419 404.226C322.162 404.693 321.78 405.136 321.273 405.554C320.776 405.947 320.214 406.288 319.586 406.577C317.958 407.326 316.504 407.491 315.223 407.074C313.959 406.649 312.956 405.631 312.215 404.02L309.629 398.398L307.517 399.369L306.113 396.317L308.224 395.345L306.691 392.013L310.66 390.188L312.193 393.52L315.601 391.952L317.006 395.004L313.597 396.572L316.16 402.143C316.425 402.72 316.776 403.103 317.212 403.292C317.658 403.457 318.152 403.415 318.695 403.165C319.322 402.876 319.779 402.461 320.063 401.919L322.419 404.226Z" fill="white"/>
<path d="M327.701 402.495C327.025 402.854 326.334 402.926 325.627 402.71C324.92 402.493 324.383 402.039 324.015 401.347C323.638 400.638 323.566 399.947 323.8 399.273C324.025 398.583 324.475 398.058 325.151 397.699C325.827 397.339 326.514 397.259 327.212 397.459C327.901 397.642 328.434 398.088 328.811 398.797C329.179 399.489 329.255 400.189 329.039 400.896C328.823 401.603 328.377 402.136 327.701 402.495Z" fill="white"/>
<path d="M325.884 386.049L329.642 383.823L337.319 396.784L333.561 399.01L325.884 386.049ZM326.692 383.129C326.002 383.538 325.321 383.671 324.649 383.526C323.978 383.381 323.466 383.012 323.114 382.418C322.762 381.823 322.684 381.197 322.88 380.539C323.076 379.88 323.519 379.347 324.209 378.937C324.9 378.528 325.576 378.388 326.238 378.517C326.9 378.645 327.402 378.999 327.745 379.577C328.116 380.203 328.208 380.854 328.022 381.528C327.826 382.186 327.383 382.72 326.692 383.129Z" fill="white"/>
<path d="M340.693 376.26C342.221 375.188 343.773 374.783 345.348 375.046C346.939 375.298 348.367 376.325 349.632 378.128L354.586 385.187L351.01 387.696L346.442 381.187C345.756 380.209 345.033 379.634 344.273 379.46C343.502 379.271 342.711 379.461 341.902 380.03C341 380.662 340.48 381.449 340.342 382.389C340.193 383.315 340.505 384.328 341.277 385.428L345.555 391.524L341.98 394.033L333.327 381.703L336.742 379.306L337.755 380.75C337.864 379.898 338.174 379.088 338.684 378.32C339.183 377.536 339.853 376.85 340.693 376.26Z" fill="white"/>
<path d="M360.719 380.427C360.128 380.913 359.465 381.121 358.729 381.05C357.993 380.979 357.376 380.641 356.878 380.036C356.367 379.416 356.159 378.753 356.254 378.046C356.337 377.325 356.674 376.721 357.265 376.234C357.856 375.747 358.513 375.532 359.237 375.589C359.949 375.631 360.56 375.962 361.07 376.582C361.569 377.187 361.782 377.857 361.711 378.593C361.64 379.329 361.309 379.94 360.719 380.427Z" fill="white"/>
<path d="M366.585 354.365L377.028 365.222L374.042 368.095L372.8 366.803C372.835 367.675 372.687 368.517 372.355 369.329C372.009 370.128 371.5 370.851 370.827 371.498C369.401 372.869 367.876 373.546 366.253 373.528C364.63 373.509 363.041 372.693 361.488 371.079L355.587 364.944L358.736 361.916L364.19 367.586C365.872 369.335 367.447 369.505 368.913 368.094C369.666 367.369 370.039 366.545 370.03 365.621C370.009 364.683 369.532 363.73 368.601 362.761L363.437 357.393L366.585 354.365Z" fill="white"/>
<path d="M373.267 346.42C374.773 344.637 376.357 343.63 378.02 343.398C379.668 343.154 381.348 343.754 383.059 345.2L389.624 350.749L386.985 353.871L385.553 352.66C386.092 354.191 385.638 355.812 384.192 357.523C383.445 358.407 382.645 359.05 381.791 359.453C380.95 359.842 380.121 359.984 379.304 359.88C378.487 359.777 377.744 359.442 377.074 358.876C376.004 357.972 375.501 356.862 375.562 355.545C375.636 354.214 376.384 352.708 377.806 351.026L380.047 348.374C379.32 347.759 378.577 347.51 377.819 347.627C377.046 347.732 376.286 348.226 375.539 349.11C375.021 349.723 374.608 350.413 374.302 351.181C373.993 351.922 373.828 352.638 373.807 353.328L370.464 352.556C370.552 351.555 370.842 350.517 371.335 349.443C371.839 348.354 372.483 347.346 373.267 346.42ZM382.652 354.791C383.134 354.221 383.433 353.606 383.55 352.948C383.653 352.277 383.526 351.632 383.169 351.013L381.993 350.019L380.059 352.307C378.902 353.675 378.773 354.739 379.671 355.498C380.099 355.86 380.58 355.985 381.113 355.874C381.645 355.737 382.158 355.376 382.652 354.791Z" fill="white"/>
<path d="M105.506 347.371L90.282 359.716L87.4427 356.214L99.7957 346.197L94.2228 339.325L81.8698 349.342L79.0305 345.841L94.2543 333.496L105.506 347.371Z" stroke="white" stroke-width="8" stroke-linejoin="round" mask="url(#path-6-outside-1)"/>
<path d="M105.358 353.606L108.398 356.743L97.5814 367.228L94.5412 364.091L105.358 353.606ZM108.386 353.713C107.827 353.137 107.54 352.505 107.524 351.818C107.508 351.132 107.748 350.548 108.244 350.067C108.74 349.587 109.331 349.365 110.017 349.402C110.703 349.439 111.325 349.746 111.884 350.322C112.443 350.898 112.736 351.523 112.766 352.197C112.795 352.871 112.568 353.442 112.085 353.909C111.563 354.416 110.952 354.657 110.252 354.633C109.567 354.596 108.944 354.289 108.386 353.713Z" stroke="white" stroke-width="8" stroke-linejoin="round" mask="url(#path-6-outside-1)"/>
<path d="M116.155 379.439L111.627 384.555L108.587 381.865L110.74 379.432L102.814 372.418L100.662 374.85L97.6213 372.159L102.149 367.043L102.611 367.451C103.322 368.056 104.169 368.07 105.152 367.495C106.135 366.919 107.324 365.914 108.717 364.48L112.316 360.71L122.149 369.414L114.541 378.01L116.155 379.439ZM111.47 367.328C110.413 368.437 109.493 369.293 108.71 369.896C107.941 370.512 107.208 370.847 106.51 370.903L111.27 375.116L116.503 369.203L112.813 365.937L111.47 367.328Z" stroke="white" stroke-width="8" stroke-linejoin="round" mask="url(#path-6-outside-1)"/>
<path d="M138.212 381.138L129.525 393.445L125.957 390.926L132.577 381.547L127.453 377.93L120.833 387.309L117.287 384.806L125.974 372.5L138.212 381.138Z" stroke="white" stroke-width="8" stroke-linejoin="round" mask="url(#path-6-outside-1)"/>
<path d="M142.007 383.552L145.802 385.656L141.458 393.493L152.218 389.213L155.72 391.155L148.417 404.329L144.621 402.225L148.965 394.389L138.229 398.682L134.703 396.727L142.007 383.552Z" stroke="white" stroke-width="8" stroke-linejoin="round" mask="url(#path-6-outside-1)"/>
<path d="M159.741 409.638C158.266 409.003 157.067 408.131 156.142 407.022C155.242 405.903 154.689 404.66 154.486 403.292C154.299 401.931 154.501 400.565 155.091 399.193C155.681 397.821 156.535 396.736 157.651 395.936C158.785 395.143 160.063 394.698 161.488 394.6C162.936 394.491 164.398 394.755 165.873 395.389C167.33 396.016 168.466 396.871 169.281 397.953C170.12 399.025 170.545 400.234 170.555 401.58L166.723 401.913C166.549 400.334 165.785 399.253 164.43 398.67C163.384 398.22 162.371 398.19 161.39 398.581C160.409 398.972 159.664 399.759 159.155 400.942C158.646 402.125 158.586 403.207 158.977 404.188C159.368 405.169 160.086 405.885 161.132 406.335C162.504 406.925 163.814 406.737 165.063 405.771L167.445 408.807C166.475 409.691 165.309 410.205 163.946 410.35C162.6 410.502 161.198 410.265 159.741 409.638Z" stroke="white" stroke-width="8" stroke-linejoin="round" mask="url(#path-6-outside-1)"/>
<path d="M180.134 400.729C182.353 401.452 183.883 402.539 184.726 403.991C185.574 405.426 185.651 407.208 184.958 409.338L182.296 417.511L178.409 416.246L178.99 414.462C177.776 415.539 176.103 415.731 173.974 415.037C172.873 414.679 171.975 414.18 171.28 413.542C170.603 412.909 170.158 412.195 169.946 411.399C169.734 410.604 169.763 409.789 170.035 408.955C170.469 407.624 171.307 406.738 172.549 406.299C173.809 405.865 175.487 405.989 177.581 406.671L180.882 407.746C181.177 406.841 181.127 406.059 180.733 405.4C180.345 404.724 179.6 404.207 178.5 403.849C177.737 403.6 176.942 403.479 176.115 403.485C175.313 403.478 174.587 403.596 173.94 403.836L173.394 400.449C174.354 400.153 175.424 400.03 176.605 400.081C177.804 400.138 178.98 400.354 180.134 400.729ZM175.922 412.58C176.632 412.811 177.314 412.856 177.968 412.716C178.629 412.558 179.178 412.197 179.617 411.633L180.094 410.169L177.245 409.241C175.541 408.686 174.507 408.968 174.143 410.086C173.969 410.619 174.035 411.111 174.339 411.563C174.667 412.004 175.194 412.343 175.922 412.58Z" stroke="white" stroke-width="8" stroke-linejoin="round" mask="url(#path-6-outside-1)"/>
<path d="M190.411 404.168L194.653 405.084L193.411 410.832L199.815 412.215L201.057 406.468L205.327 407.39L202.145 422.115L197.876 421.192L199.064 415.691L192.66 414.307L191.472 419.808L187.23 418.892L190.411 404.168Z" stroke="white" stroke-width="8" stroke-linejoin="round" mask="url(#path-6-outside-1)"/>
<path d="M214.691 424.008C213.114 423.832 211.731 423.349 210.542 422.559C209.374 421.752 208.502 420.726 207.927 419.478C207.353 418.231 207.148 416.865 207.314 415.381C207.479 413.897 207.979 412.61 208.815 411.519C209.65 410.429 210.725 409.629 212.041 409.118C213.377 408.591 214.833 408.415 216.41 408.591C217.987 408.767 219.36 409.258 220.528 410.065C221.699 410.853 222.571 411.87 223.146 413.118C223.721 414.365 223.925 415.731 223.76 417.215C223.594 418.699 223.094 419.986 222.259 421.076C221.423 422.166 220.347 422.976 219.029 423.505C217.714 424.016 216.268 424.183 214.691 424.008ZM215.088 420.446C216.201 420.57 217.152 420.3 217.939 419.637C218.748 418.957 219.222 417.986 219.363 416.725C219.504 415.463 219.254 414.421 218.613 413.598C217.993 412.759 217.126 412.277 216.013 412.153C214.9 412.029 213.939 412.307 213.131 412.987C212.324 413.648 211.851 414.61 211.71 415.871C211.57 417.133 211.819 418.184 212.457 419.025C213.098 419.848 213.975 420.322 215.088 420.446Z" stroke="white" stroke-width="8" stroke-linejoin="round" mask="url(#path-6-outside-1)"/>
<path d="M249.768 409.624L243.406 425.792C242.763 427.547 241.938 428.793 240.931 429.53C239.943 430.267 238.731 430.655 237.294 430.694C236.51 430.716 235.733 430.616 234.961 430.394C234.189 430.173 233.555 429.854 233.058 429.438L234.568 426.288C234.912 426.577 235.301 426.8 235.735 426.956C236.187 427.111 236.628 427.183 237.057 427.172C237.654 427.155 238.135 426.992 238.5 426.684C238.866 426.394 239.188 425.908 239.469 425.229L239.521 425.087L232.582 410.096L237.088 409.972L241.596 420.072L245.569 409.739L249.768 409.624Z" stroke="white" stroke-width="8" stroke-linejoin="round" mask="url(#path-6-outside-1)"/>
<path d="M267.604 406.977C268.985 406.743 270.291 406.854 271.522 407.308C272.769 407.741 273.813 408.483 274.653 409.533C275.49 410.565 276.038 411.845 276.296 413.373C276.554 414.901 276.46 416.299 276.011 417.567C275.56 418.817 274.818 419.861 273.786 420.698C272.769 421.514 271.571 422.038 270.19 422.271C268.294 422.592 266.702 422.246 265.414 421.233L266.586 428.163L262.279 428.891L258.862 408.682L262.976 407.986L263.265 409.698C264.115 408.229 265.561 407.322 267.604 406.977ZM268.847 418.864C269.952 418.677 270.791 418.156 271.366 417.302C271.956 416.426 272.146 415.362 271.934 414.111C271.722 412.859 271.196 411.926 270.353 411.311C269.526 410.675 268.561 410.45 267.456 410.636C266.352 410.823 265.505 411.354 264.914 412.23C264.339 413.085 264.158 414.138 264.369 415.39C264.581 416.641 265.1 417.585 265.927 418.221C266.77 418.836 267.743 419.05 268.847 418.864Z" stroke="white" stroke-width="8" stroke-linejoin="round" mask="url(#path-6-outside-1)"/>
<path d="M289.032 417.981C287.504 418.407 286.041 418.476 284.642 418.188C283.257 417.877 282.065 417.25 281.066 416.308C280.067 415.366 279.366 414.176 278.965 412.737C278.564 411.299 278.547 409.918 278.914 408.594C279.282 407.271 279.98 406.127 281.009 405.161C282.051 404.173 283.336 403.466 284.865 403.04C286.393 402.613 287.85 402.556 289.235 402.867C290.615 403.16 291.805 403.778 292.804 404.72C293.803 405.662 294.503 406.853 294.905 408.291C295.306 409.73 295.323 411.11 294.956 412.434C294.588 413.757 293.893 414.91 292.868 415.894C291.839 416.859 290.561 417.555 289.032 417.981ZM288.069 414.529C289.148 414.228 289.929 413.623 290.411 412.713C290.907 411.78 290.984 410.702 290.643 409.48C290.302 408.257 289.681 407.384 288.779 406.86C287.89 406.314 286.906 406.191 285.827 406.492C284.749 406.793 283.961 407.41 283.466 408.342C282.965 409.257 282.885 410.326 283.226 411.549C283.567 412.771 284.191 413.653 285.098 414.195C286 414.719 286.99 414.83 288.069 414.529Z" stroke="white" stroke-width="8" stroke-linejoin="round" mask="url(#path-6-outside-1)"/>
<path d="M300.42 400.26C300.654 399.395 301.116 398.633 301.807 397.976C302.514 397.311 303.41 396.776 304.494 396.37L305.91 400.145C305.442 400.28 305.13 400.378 304.972 400.437C303.801 400.876 303.008 401.552 302.593 402.465C302.172 403.361 302.207 404.464 302.698 405.775L305.196 412.434L301.106 413.968L295.816 399.864L299.722 398.398L300.42 400.26Z" stroke="white" stroke-width="8" stroke-linejoin="round" mask="url(#path-6-outside-1)"/>
<path d="M322.419 404.226C322.162 404.693 321.78 405.136 321.273 405.554C320.776 405.947 320.214 406.288 319.586 406.577C317.958 407.326 316.504 407.491 315.223 407.074C313.959 406.649 312.956 405.631 312.215 404.02L309.629 398.398L307.517 399.369L306.113 396.317L308.224 395.345L306.691 392.013L310.66 390.188L312.193 393.52L315.601 391.952L317.006 395.004L313.597 396.572L316.16 402.143C316.425 402.72 316.776 403.103 317.212 403.292C317.658 403.457 318.152 403.415 318.695 403.165C319.322 402.876 319.779 402.461 320.063 401.919L322.419 404.226Z" stroke="white" stroke-width="8" stroke-linejoin="round" mask="url(#path-6-outside-1)"/>
<path d="M327.701 402.495C327.025 402.854 326.334 402.926 325.627 402.71C324.92 402.493 324.383 402.039 324.015 401.347C323.638 400.638 323.566 399.947 323.8 399.273C324.025 398.583 324.475 398.058 325.151 397.699C325.827 397.339 326.514 397.259 327.212 397.459C327.901 397.642 328.434 398.088 328.811 398.797C329.179 399.489 329.255 400.189 329.039 400.896C328.823 401.603 328.377 402.136 327.701 402.495Z" stroke="white" stroke-width="8" stroke-linejoin="round" mask="url(#path-6-outside-1)"/>
<path d="M325.884 386.049L329.642 383.823L337.319 396.784L333.561 399.01L325.884 386.049ZM326.692 383.129C326.002 383.538 325.321 383.671 324.649 383.526C323.978 383.381 323.466 383.012 323.114 382.418C322.762 381.823 322.684 381.197 322.88 380.539C323.076 379.88 323.519 379.347 324.209 378.937C324.9 378.528 325.576 378.388 326.238 378.517C326.9 378.645 327.402 378.999 327.745 379.577C328.116 380.203 328.208 380.854 328.022 381.528C327.826 382.186 327.383 382.72 326.692 383.129Z" stroke="white" stroke-width="8" stroke-linejoin="round" mask="url(#path-6-outside-1)"/>
<path d="M340.693 376.26C342.221 375.188 343.773 374.783 345.348 375.046C346.939 375.298 348.367 376.325 349.632 378.128L354.586 385.187L351.01 387.696L346.442 381.187C345.756 380.209 345.033 379.634 344.273 379.46C343.502 379.271 342.711 379.461 341.902 380.03C341 380.662 340.48 381.449 340.342 382.389C340.193 383.315 340.505 384.328 341.277 385.428L345.555 391.524L341.98 394.033L333.327 381.703L336.742 379.306L337.755 380.75C337.864 379.898 338.174 379.088 338.684 378.32C339.183 377.536 339.853 376.85 340.693 376.26Z" stroke="white" stroke-width="8" stroke-linejoin="round" mask="url(#path-6-outside-1)"/>
<path d="M360.719 380.427C360.128 380.913 359.465 381.121 358.729 381.05C357.993 380.979 357.376 380.641 356.878 380.036C356.367 379.416 356.159 378.753 356.254 378.046C356.337 377.325 356.674 376.721 357.265 376.234C357.856 375.747 358.513 375.532 359.237 375.589C359.949 375.631 360.56 375.962 361.07 376.582C361.569 377.187 361.782 377.857 361.711 378.593C361.64 379.329 361.309 379.94 360.719 380.427Z" stroke="white" stroke-width="8" stroke-linejoin="round" mask="url(#path-6-outside-1)"/>
<path d="M366.585 354.365L377.028 365.222L374.042 368.095L372.8 366.803C372.835 367.675 372.687 368.517 372.355 369.329C372.009 370.128 371.5 370.851 370.827 371.498C369.401 372.869 367.876 373.546 366.253 373.528C364.63 373.509 363.041 372.693 361.488 371.079L355.587 364.944L358.736 361.916L364.19 367.586C365.872 369.335 367.447 369.505 368.913 368.094C369.666 367.369 370.039 366.545 370.03 365.621C370.009 364.683 369.532 363.73 368.601 362.761L363.437 357.393L366.585 354.365Z" stroke="white" stroke-width="8" stroke-linejoin="round" mask="url(#path-6-outside-1)"/>
<path d="M373.267 346.42C374.773 344.637 376.357 343.63 378.02 343.398C379.668 343.154 381.348 343.754 383.059 345.2L389.624 350.749L386.985 353.871L385.553 352.66C386.092 354.191 385.638 355.812 384.192 357.523C383.445 358.407 382.645 359.05 381.791 359.453C380.95 359.842 380.121 359.984 379.304 359.88C378.487 359.777 377.744 359.442 377.074 358.876C376.004 357.972 375.501 356.862 375.562 355.545C375.636 354.214 376.384 352.708 377.806 351.026L380.047 348.374C379.32 347.759 378.577 347.51 377.819 347.627C377.046 347.732 376.286 348.226 375.539 349.11C375.021 349.723 374.608 350.413 374.302 351.181C373.993 351.922 373.828 352.638 373.807 353.328L370.464 352.556C370.552 351.555 370.842 350.517 371.335 349.443C371.839 348.354 372.483 347.346 373.267 346.42ZM382.652 354.791C383.134 354.221 383.433 353.606 383.55 352.948C383.653 352.277 383.526 351.632 383.169 351.013L381.993 350.019L380.059 352.307C378.902 353.675 378.773 354.739 379.671 355.498C380.099 355.86 380.58 355.985 381.113 355.874C381.645 355.737 382.158 355.376 382.652 354.791Z" stroke="white" stroke-width="8" stroke-linejoin="round" mask="url(#path-6-outside-1)"/>
<text transform="translate(98.3676 327.47) rotate(50.7424)" fill="#3844AE" xml:space="preserve" style="white-space: pre" font-family="Montserrat" font-size="28" font-weight="bold" letter-spacing="0em"><tspan x="0" y="27.038">&#x41f;</tspan></text>
<text transform="translate(112.45 344.284) rotate(45.6732)" fill="#3844AE" xml:space="preserve" style="white-space: pre" font-family="Montserrat" font-size="28" font-weight="bold" letter-spacing="0em"><tspan x="0" y="27.038">&#x456;</tspan></text>
<text transform="translate(117.444 349.777) rotate(41.2919)" fill="#3844AE" xml:space="preserve" style="white-space: pre" font-family="Montserrat" font-size="28" font-weight="bold" letter-spacing="0em"><tspan x="0" y="27.038">&#x434;</tspan></text>
<text transform="translate(131.174 361.939) rotate(34.9986)" fill="#3844AE" xml:space="preserve" style="white-space: pre" font-family="Montserrat" font-size="28" font-weight="bold" letter-spacing="0em"><tspan x="0" y="27.038">&#x43f;</tspan></text>
<text transform="translate(146.029 372.44) rotate(28.7837)" fill="#3844AE" xml:space="preserve" style="white-space: pre" font-family="Montserrat" font-size="28" font-weight="bold" letter-spacing="0em"><tspan x="0" y="27.038">&#x438;</tspan></text>
<text transform="translate(162.095 381.251) rotate(23.0647)" fill="#3844AE" xml:space="preserve" style="white-space: pre" font-family="Montserrat" font-size="28" font-weight="bold" letter-spacing="0em"><tspan x="0" y="27.038">&#x441;</tspan></text>
<text transform="translate(176.328 387.36) rotate(17.8163)" fill="#3844AE" xml:space="preserve" style="white-space: pre" font-family="Montserrat" font-size="28" font-weight="bold" letter-spacing="0em"><tspan x="0" y="27.038">&#x430;</tspan></text>
<text transform="translate(191.027 392.23) rotate(11.9734)" fill="#3844AE" xml:space="preserve" style="white-space: pre" font-family="Montserrat" font-size="28" font-weight="bold" letter-spacing="0em"><tspan x="0" y="27.038">&#x43d;</tspan></text>
<text transform="translate(208.771 396.042) rotate(6.14355)" fill="#3844AE" xml:space="preserve" style="white-space: pre" font-family="Montserrat" font-size="28" font-weight="bold" letter-spacing="0em"><tspan x="0" y="27.038">&#x43e;</tspan></text>
<text transform="translate(232.425 398.18) rotate(-1.79422)" fill="#3844AE" xml:space="preserve" style="white-space: pre" font-family="Montserrat" font-size="28" font-weight="bold" letter-spacing="0em"><tspan x="0" y="27.038">&#x443;</tspan></text>
<text transform="translate(255.052 397.177) rotate(-9.81569)" fill="#3844AE" xml:space="preserve" style="white-space: pre" font-family="Montserrat" font-size="28" font-weight="bold" letter-spacing="0em"><tspan x="0" y="27.038">p</tspan></text>
<text transform="translate(273.027 394.085) rotate(-15.8045)" fill="#3844AE" xml:space="preserve" style="white-space: pre" font-family="Montserrat" font-size="28" font-weight="bold" letter-spacing="0em"><tspan x="0" y="27.038">o</tspan></text>
<text transform="translate(289.874 389.191) rotate(-20.7789)" fill="#3844AE" xml:space="preserve" style="white-space: pre" font-family="Montserrat" font-size="28" font-weight="bold" letter-spacing="0em"><tspan x="0" y="27.038">r</tspan></text>
<text transform="translate(300.902 385.015) rotate(-24.9239)" fill="#3844AE" xml:space="preserve" style="white-space: pre" font-family="Montserrat" font-size="28" font-weight="bold" letter-spacing="0em"><tspan x="0" y="27.038">t</tspan></text>
<text transform="translate(311.784 379.89) rotate(-28.2159)" fill="#3844AE" xml:space="preserve" style="white-space: pre" font-family="Montserrat" font-size="28" font-weight="bold" letter-spacing="0em"><tspan x="0" y="27.038">.</tspan></text>
<text transform="translate(318.155 376.494) rotate(-30.8594)" fill="#3844AE" xml:space="preserve" style="white-space: pre" font-family="Montserrat" font-size="28" font-weight="bold" letter-spacing="0em"><tspan x="0" y="27.038">i</tspan></text>
<text transform="translate(324.895 372.752) rotate(-35.278)" fill="#3844AE" xml:space="preserve" style="white-space: pre" font-family="Montserrat" font-size="28" font-weight="bold" letter-spacing="0em"><tspan x="0" y="27.038">n</tspan></text>
<text transform="translate(340.609 361.347) rotate(-39.6994)" fill="#3844AE" xml:space="preserve" style="white-space: pre" font-family="Montserrat" font-size="28" font-weight="bold" letter-spacing="0em"><tspan x="0" y="27.038">.</tspan></text>
<text transform="translate(345.936 357.262) rotate(-44.107)" fill="#3844AE" xml:space="preserve" style="white-space: pre" font-family="Montserrat" font-size="28" font-weight="bold" letter-spacing="0em"><tspan x="0" y="27.038">u</tspan></text>
<text transform="translate(359.065 344.57) rotate(-50.0164)" fill="#3844AE" xml:space="preserve" style="white-space: pre" font-family="Montserrat" font-size="28" font-weight="bold" letter-spacing="0em"><tspan x="0" y="27.038">a</tspan></text>
</svg>
